<svg width="159" height="114" viewBox="0 0 159 114" fill="none" xmlns="http://www.w3.org/2000/svg">
<path d="M2.97852 69.0577L3.4968 68.0666C12.9473 49.9934 34.2697 41.6463 53.4785 48.5V48.5" stroke="#F9F7F4" stroke-width="4.5" stroke-linecap="round"/>
<circle cx="41.328" cy="19.6942" r="17.4442" fill="#F9F7F4" stroke="#F9F7F4" stroke-width="4.5"/>
<path d="M156.022 69.0577L155.385 67.8389C146.044 49.9756 124.842 41.8911 105.979 49V49" stroke="#F9F7F4" stroke-width="4.5" stroke-linecap="round"/>
<circle cx="19.6942" cy="19.6942" r="17.4442" transform="matrix(-1 0 0 1 137.367 0)" fill="#F9F7F4" stroke="#F9F7F4" stroke-width="4.5"/>
<path d="M34.9785 111.547V111.547C54.1418 76.0712 105.518 75.7965 124.164 111.547V111.547" stroke="#F9F7F4" stroke-width="4.5" stroke-linecap="round"/>
<circle cx="79.4047" cy="54.3619" r="20.5648" fill="#F9F7F4" stroke="#F9F7F4" stroke-width="4.5"/>
<path d="M35.158 46.126C16.158 47.5196 3.97852 71 3.97852 71L60.9785 71C60.9785 71 57.5082 67.6991 55.6195 61.6724C53.3719 54.5 55.6195 49 55.6195 49C55.6195 49 49.2862 45.0897 35.158 46.126Z" fill="#F9F7F4"/>
<path d="M124.252 46.126C143.585 47.5196 155.979 71 155.979 71L97.9785 71C97.9785 71 101.315 67.6334 103.432 61.6724C105.801 55 103.979 49.5 103.979 49.5C103.979 49.5 109.876 45.0897 124.252 46.126Z" fill="#F9F7F4"/>
<path d="M78.9785 86.9973C45.4785 86.9973 35.9785 113.497 35.9785 113.497H123.479C118.479 104.5 110.479 86.9973 78.9785 86.9973Z" fill="#F9F7F4"/>
</svg>
