<svg width="76" height="65" viewBox="0 0 76 65" fill="none" xmlns="http://www.w3.org/2000/svg">
<path opacity="0.5" d="M26.0979 50.5L26.6086 49.6402L26.0979 50.5ZM75.3672 57.6389C75.72 57.2141 75.6617 56.5836 75.2368 56.2307L68.3134 50.4804C67.8886 50.1275 67.2581 50.1859 66.9052 50.6107C66.5524 51.0356 66.6107 51.666 67.0356 52.0189L73.1897 57.1303L68.0783 63.2845C67.7254 63.7093 67.7838 64.3398 68.2086 64.6927C68.6335 65.0455 69.2639 64.9872 69.6168 64.5623L75.3672 57.6389ZM1.0979 1C0.0982863 1.02778 0.0982992 1.02824 0.0983161 1.02883C0.0983268 1.02921 0.0983478 1.02994 0.0983697 1.0307C0.0984137 1.03221 0.0984742 1.03426 0.0985527 1.03683C0.0987095 1.04199 0.098938 1.04928 0.0992488 1.05866C0.0998701 1.07744 0.10082 1.10463 0.102183 1.14001C0.10491 1.21077 0.10929 1.31432 0.115999 1.44893C0.129418 1.71815 0.152158 2.11172 0.189635 2.61586C0.264579 3.62403 0.398514 5.07521 0.63486 6.85923C1.1073 10.4254 1.99026 15.3315 3.63396 20.6925C6.91353 31.389 13.2679 44.0422 25.5872 51.3598L26.6086 49.6402C14.9069 42.6895 8.76128 30.5927 5.5461 20.1063C3.94242 14.8758 3.07931 10.0822 2.61754 6.59657C2.38677 4.85467 2.25656 3.4419 2.18413 2.4676C2.14792 1.98051 2.12617 1.60321 2.11352 1.34937C2.10719 1.22246 2.10314 1.12643 2.1007 1.063C2.09948 1.03128 2.09866 1.00772 2.09815 0.992516C2.0979 0.984915 2.09773 0.979406 2.09763 0.976015C2.09758 0.974319 2.09754 0.973153 2.09752 0.97252C2.09751 0.972204 2.09751 0.97213 2.09751 0.971971C2.09751 0.97203 2.09751 0.972223 1.0979 1ZM25.5872 51.3598C33.8217 56.251 46.169 57.8772 56.3071 58.3144C61.4039 58.5342 65.9946 58.4548 69.3111 58.3206C70.9699 58.2534 72.3113 58.1725 73.2395 58.1083C73.7036 58.0761 74.0645 58.0482 74.3103 58.0282C74.4331 58.0181 74.5272 58.0101 74.591 58.0046C74.6229 58.0018 74.6472 57.9996 74.6638 57.9981C74.6721 57.9974 74.6784 57.9968 74.6828 57.9964C74.685 57.9962 74.6867 57.9961 74.6879 57.9959C74.6885 57.9959 74.6891 57.9958 74.6894 57.9958C74.6898 57.9958 74.6901 57.9957 74.5979 57C74.5057 56.0043 74.5058 56.0043 74.5057 56.0043C74.5055 56.0043 74.5053 56.0043 74.5049 56.0043C74.5041 56.0044 74.5029 56.0045 74.5011 56.0047C74.4976 56.005 74.4922 56.0055 74.4848 56.0062C74.47 56.0075 74.4475 56.0095 74.4174 56.0121C74.3572 56.0174 74.2669 56.0251 74.1479 56.0348C73.9098 56.0542 73.557 56.0815 73.1014 56.113C72.19 56.1761 70.8678 56.2559 69.2302 56.3222C65.9538 56.4548 61.4207 56.533 56.3933 56.3163C46.283 55.8803 34.3803 54.2565 26.6086 49.6402L25.5872 51.3598Z" fill="black"/>
</svg>
