<svg width="399" height="214" viewBox="0 0 399 214" fill="none" xmlns="http://www.w3.org/2000/svg">
<circle cx="7" cy="44" r="7" fill="#D9D9D9"/>
<circle cx="93" cy="94" r="7" fill="#D9D9D9"/>
<circle cx="29" cy="152" r="7" fill="#D9D9D9"/>
<circle cx="154" cy="179" r="7" fill="#D9D9D9"/>
<circle cx="191" cy="11" r="7" fill="#D9D9D9"/>
<circle cx="309" cy="78" r="7" fill="#D9D9D9"/>
<circle cx="380" cy="163" r="7" fill="#D9D9D9"/>
<circle cx="298.5" cy="178.5" r="3.5" fill="#D9D9D9"/>
<circle cx="139.5" cy="159.5" r="3.5" fill="#D9D9D9"/>
<circle cx="3.5" cy="124.5" r="3.5" fill="#D9D9D9"/>
<circle cx="92.5" cy="71.5" r="3.5" fill="#D9D9D9"/>
<circle cx="112.5" cy="100.5" r="3.5" fill="#D9D9D9"/>
<circle cx="194.5" cy="26.5" r="3.5" fill="#D9D9D9"/>
<circle cx="298.5" cy="67.5" r="3.5" fill="#D9D9D9"/>
<circle cx="319.5" cy="98.5" r="3.5" fill="#D9D9D9"/>
<circle cx="372.5" cy="26.5" r="3.5" fill="#D9D9D9"/>
<circle cx="395.5" cy="30.5" r="3.5" fill="#D9D9D9"/>
<circle cx="383.5" cy="144.5" r="3.5" fill="#D9D9D9"/>
<circle cx="99.5" cy="121.5" r="3.5" fill="#D9D9D9"/>
<circle cx="134.5" cy="133.5" r="1.5" fill="#D9D9D9"/>
<circle cx="117.5" cy="119.5" r="1.5" fill="#D9D9D9"/>
<circle cx="153.5" cy="153.5" r="1.5" fill="#D9D9D9"/>
<circle cx="23.5" cy="128.5" r="1.5" fill="#D9D9D9"/>
<circle cx="20.5" cy="38.5" r="1.5" fill="#D9D9D9"/>
<circle cx="300.5" cy="87.5" r="1.5" fill="#D9D9D9"/>
<circle cx="278.5" cy="164.5" r="1.5" fill="#D9D9D9"/>
<circle cx="303.5" cy="167.5" r="1.5" fill="#D9D9D9"/>
<circle cx="385.5" cy="35.5" r="1.5" fill="#D9D9D9"/>
<path d="M242.193 106.652C244.37 110.864 229.372 137.614 242.193 147C256.4 157.4 236.811 178.198 245.569 195" stroke="#D8D8D8" stroke-width="4.49708" stroke-miterlimit="10"/>
<path d="M239.63 111.165L245.423 110.749C245.875 110.719 246.313 110.588 246.7 110.368C247.088 110.147 247.415 109.843 247.656 109.479C247.896 109.115 248.043 108.702 248.085 108.273C248.127 107.844 248.062 107.411 247.896 107.007C246.384 103.368 244.216 100.001 241.492 97.059C240.78 99.7953 238.625 103.946 236.832 107.093C236.585 107.528 236.467 108.019 236.491 108.514C236.514 109.01 236.678 109.492 236.964 109.909C237.251 110.326 237.65 110.663 238.119 110.884C238.588 111.105 239.11 111.202 239.63 111.165Z" fill="#FFEC42"/>
<path d="M195.171 53.2064C199.922 84.4813 230.061 101.389 241.918 99.8561C253.775 98.3228 277.367 72.1974 272.969 43.2173C269.849 22.7633 249.906 8.43256 228.417 11.198C206.929 13.9634 192.048 32.7812 195.168 53.2352L195.171 53.2064Z" fill="#FFE607"/>
<path d="M194.842 52.9148C199.593 84.1898 229.732 101.098 241.589 99.5646C253.446 98.0313 277.038 71.9059 272.64 42.9258C269.52 22.4718 249.576 8.14106 228.088 10.9065C206.6 13.6719 191.719 32.4897 194.839 52.9437L194.842 52.9148Z" fill="#FFEC42"/>
<path d="M239.354 102.628L244.692 101.946C246.378 101.729 247.551 100.259 247.306 98.654C247.061 97.0488 245.504 95.9196 243.817 96.1366L238.449 96.8162C236.763 97.0332 235.59 98.5026 235.835 100.108C236.08 101.713 237.637 102.842 239.323 102.625L239.354 102.628Z" fill="#EEDA22"/>
<path d="M252.061 21.6811C248.168 18.9018 242.417 16.7499 238.644 20.9302C236.633 23.1539 237.885 27.7959 241.464 29.1575C247.516 31.474 248.396 33.7028 249.497 35.5453C250.832 37.711 252.038 40.3786 254.582 41.0201C257.127 41.6616 258.772 39.9559 259.001 36.3873C259.526 30.6928 256.901 25.1237 252.061 21.6811Z" fill="#FFFCE1"/>
<path d="M153.751 111C148 136 160.904 131.452 170 136C186 144 170 181 206 201.5" stroke="#D8D8D8" stroke-width="4.54724" stroke-miterlimit="10"/>
<path d="M151.415 113.735L157.945 112.633C158.456 112.55 158.938 112.354 159.354 112.061C159.771 111.769 160.109 111.388 160.342 110.949C160.576 110.51 160.698 110.025 160.698 109.533C160.699 109.042 160.579 108.557 160.347 108.117C158.234 104.15 155.408 100.563 151.995 97.52C151.485 100.704 149.49 105.65 147.796 109.417C147.563 109.937 147.483 110.507 147.563 111.067C147.644 111.627 147.882 112.156 148.252 112.599C148.623 113.041 149.113 113.38 149.669 113.58C150.226 113.78 150.829 113.833 151.415 113.735Z" fill="#F44336"/>
<path d="M94.6481 52.7745C103.44 87.7601 139.491 103.678 152.784 100.648C166.077 97.6191 190.018 65.3984 181.876 32.9794C176.111 10.0999 151.914 -4.00006 127.822 1.4747C103.73 6.94947 88.8832 29.9281 94.6481 52.8075V52.7745Z" fill="#F44336"/>
<path d="M94.2423 52.4795C103.035 87.4652 139.086 103.383 152.379 100.353C165.671 97.3242 189.613 65.1035 181.47 32.6845C175.705 9.80502 151.509 -4.29498 127.417 1.17978C103.325 6.65455 88.4774 29.6331 94.2423 52.5126V52.4795Z" fill="#F44336"/>
<path d="M150.174 104.074L156.16 102.719C158.05 102.29 159.222 100.494 158.769 98.6987C158.317 96.9031 156.426 95.7905 154.536 96.2202L148.516 97.5751C146.625 98.0047 145.453 99.8002 145.906 101.596C146.358 103.391 148.249 104.504 150.139 104.074H150.174Z" fill="#C62828"/>
<path d="M155.8 10.8052C151.079 8.07331 144.317 6.25574 140.489 11.411C138.448 14.1539 140.373 19.2872 144.584 20.4439C151.706 22.4157 152.947 24.8501 154.397 26.8219C156.148 29.1352 157.807 32.0323 160.765 32.4839C163.723 32.9356 165.405 30.8206 165.277 26.7448C165.254 20.2235 161.67 14.187 155.8 10.8052Z" fill="#FF847A"/>
<path d="M208.234 146.77C210.857 150.839 200.315 165.262 214.261 173.554C229.715 182.743 219.555 195.774 230.092 212" stroke="#D8D8D8" stroke-width="4.59212" stroke-miterlimit="10"/>
<path d="M207.037 150.739L211.96 149.908C212.344 149.845 212.708 149.698 213.022 149.477C213.335 149.257 213.591 148.969 213.766 148.638C213.942 148.307 214.034 147.942 214.035 147.571C214.035 147.201 213.945 146.835 213.77 146.504C212.177 143.513 210.046 140.809 207.474 138.515C207.089 140.915 205.585 144.644 204.308 147.484C204.133 147.876 204.073 148.306 204.133 148.728C204.194 149.15 204.373 149.549 204.653 149.882C204.932 150.215 205.301 150.471 205.721 150.622C206.14 150.773 206.595 150.813 207.037 150.739Z" fill="#5ACEFF"/>
<path d="M164.242 104.784C170.87 131.157 198.047 143.157 208.068 140.873C218.089 138.59 236.137 114.3 229.998 89.8612C225.652 72.6136 207.412 61.9844 189.25 66.1115C171.089 70.2387 159.896 87.561 164.242 104.809V104.784Z" fill="#16B9FF"/>
<path d="M163.937 104.562C170.565 130.935 197.741 142.935 207.762 140.651C217.783 138.367 235.831 114.078 229.693 89.6391C225.347 72.3915 207.106 61.7622 188.945 65.8894C170.783 70.0165 159.591 87.3388 163.937 104.586V104.562Z" fill="#5ACEFF"/>
<path d="M206.101 143.456L210.613 142.435C212.038 142.111 212.921 140.757 212.58 139.404C212.239 138.05 210.814 137.211 209.388 137.535L204.85 138.557C203.425 138.881 202.542 140.234 202.883 141.588C203.224 142.941 204.649 143.78 206.074 143.456H206.101Z" fill="#16B9FF"/>
<path d="M210.342 73.1455C206.783 71.0861 201.685 69.716 198.799 73.6023C197.26 75.67 198.712 79.5397 201.886 80.4116C207.255 81.898 208.19 83.7333 209.283 85.2197C210.604 86.9635 211.854 89.1475 214.084 89.488C216.314 89.8284 217.582 88.2341 217.485 85.1616C217.468 80.2455 214.766 75.6949 210.342 73.1455Z" fill="#A7E4FF"/>
</svg>
