<svg width="30" height="28" viewBox="0 0 30 28" fill="none" xmlns="http://www.w3.org/2000/svg">
<path d="M24.0529 2.20444C25.0702 2.47704 25.9979 3.01262 26.7426 3.75736C27.4874 4.5021 28.023 5.42975 28.2956 6.44709" stroke="#222222" stroke-width="3" stroke-linecap="round"/>
<path fill-rule="evenodd" clip-rule="evenodd" d="M15 27.5C21.6274 27.5 27 22.1274 27 15.5C27 8.87258 21.6274 3.5 15 3.5C8.37258 3.5 3 8.87258 3 15.5C3 22.1274 8.37258 27.5 15 27.5ZM16.5 9.49998C16.5 8.67156 15.8284 7.99998 15 7.99998C14.1716 7.99998 13.5 8.67156 13.5 9.49998V15.125C13.5 16.1605 14.3395 17 15.375 17H19.5C20.3284 17 21 16.3284 21 15.5C21 14.6716 20.3284 14 19.5 14H16.5V9.49998Z" fill="#222222"/>
<path d="M5.94709 2.20444C4.92975 2.47704 4.0021 3.01262 3.25736 3.75736C2.51262 4.5021 1.97704 5.42975 1.70445 6.44709" stroke="#222222" stroke-width="3" stroke-linecap="round"/>
</svg>
