<svg width="97" height="125" viewBox="0 0 97 125" fill="none" xmlns="http://www.w3.org/2000/svg">
<path d="M6.11398 0H90.8859C92.4918 0 94.032 0.63795 95.1675 1.77351C96.3031 2.90907 96.941 4.44921 96.941 6.05514V121.969C96.9417 122.51 96.7972 123.042 96.5226 123.508C96.248 123.975 95.8533 124.359 95.3797 124.621C94.906 124.883 94.3708 125.014 93.8296 124.999C93.2884 124.984 92.7612 124.824 92.3028 124.536L48.4999 95.6844L4.69707 124.53C4.23911 124.818 3.71243 124.977 3.1718 124.993C2.63116 125.008 2.09631 124.878 1.62285 124.617C1.14939 124.355 0.754614 123.972 0.479566 123.506C0.204517 123.04 0.0592404 122.509 0.0588379 121.969V6.05514C0.0588379 4.44921 0.696789 2.90907 1.83235 1.77351C2.96791 0.63795 4.50805 0 6.11398 0ZM90.8859 6.05514H6.11398V116.445L48.4999 88.4981L90.8859 116.445V6.05514Z" fill="#901A36"/>
</svg>
