<svg width="130" height="131" viewBox="0 0 130 131" fill="none" xmlns="http://www.w3.org/2000/svg">
<path d="M34.616 20.7169L17.6297 3.73062C17.6297 3.73062 38.3319 -0.569095 47.3557 11.6929C52.8119 19.1072 50.5406 35.049 50.5406 35.049L122.732 108.302C122.732 108.302 131.757 116.265 122.732 125.289C115.832 132.188 106.808 123.165 106.808 123.165L34.616 51.5045C34.616 51.5045 18.6915 55.0546 9.13657 46.1963C-0.418387 37.338 2.76672 18.5936 2.76672 18.5936L17.6297 35.049C17.6297 35.049 27.8977 43.0114 34.616 35.049C39.9905 28.6792 34.616 20.7169 34.616 20.7169Z" stroke="#901A36" stroke-width="4.5"/>
<path d="M99.9071 40.3574L85.5749 54.6895L74.9585 44.0731L90.3523 29.2101L92.4756 17.0012L115.832 3.73071L126.448 14.3471L113.708 37.1724L99.9071 40.3574Z" stroke="#901A36" stroke-width="4.5"/>
<path d="M56.9106 88.662L41.5168 73.2682L5.42099 108.833C5.42099 108.833 -1.63216 116.796 5.42099 124.227C12.4741 131.658 19.7531 125.82 19.7531 125.82L56.9106 88.662Z" stroke="#901A36" stroke-width="4.5"/>
</svg>
