<svg width="153" height="89" viewBox="0 0 153 89" fill="none" xmlns="http://www.w3.org/2000/svg">
<path d="M43.1455 73.4607L57.2741 58.0897C57.2741 58.0897 59.3459 57.5497 60.5998 57.0085C61.8189 56.4823 63.5868 55.3843 63.5868 55.3843H90.0403C90.0403 55.3843 93.593 57.328 96.0524 58.0897C100.993 59.62 109.279 59.1056 109.279 64.2781C109.279 71.5476 109.279 88.0002 109.279 88.0002H43.1455V73.4607Z" fill="#851832"/>
<path d="M93.9143 70.7724C93.3139 74.6804 93.9144 84.5999 93.9144 84.5999C93.9144 84.5999 101.845 82.2515 101.43 77.686C101.054 73.5525 94.5446 66.67 93.9143 70.7724Z" fill="#901A36"/>
<path d="M57.2741 57.7892C59.3243 57.7892 61.7832 56.2861 61.7832 56.2861L70.5008 59.5928C70.5008 59.5928 61.0746 61.6971 58.4763 67.4086C56.6679 71.3839 57.274 88.0001 57.274 88.0001H43.0001C43.0001 88.0001 42.9999 73.4609 43.0001 67.4086C43.0003 61.2056 55.4705 57.7892 57.2741 57.7892Z" fill="#76162D"/>
<path d="M67.1949 48.771C71.1019 48.771 70.8022 51.5407 76.8148 51.4765C82.2253 51.4187 81.9237 48.771 86.4338 48.771C88.2368 48.771 91.5432 52.6789 91.5432 55.9856C91.5432 58.3904 82.2467 60.1817 76.8148 60.1941C71.2661 60.2068 61.4822 58.0898 61.4824 55.9856C61.4828 52.3615 65.6909 48.771 67.1949 48.771Z" fill="#76162D"/>
<path d="M67.1949 48.771C71.1019 48.771 71.7031 51.4765 76.8148 51.4765C77.7152 51.4765 71.0094 50.5746 69.8994 55.3844C69.1363 58.691 70.8013 59.5929 70.8013 59.5929C70.8013 59.5929 61.4822 58.0898 61.4824 55.9856C61.4828 52.3615 65.6909 48.771 67.1949 48.771Z" fill="#581122"/>
<path d="M60.8832 26.9837C63.288 26.122 64.7909 29.0877 64.7909 29.0877V35.4005C64.7909 35.4005 62.9878 36.6032 61.7853 36.0019C60.5253 35.3719 60.7936 34.1985 60.5829 33.2965C60.4425 32.6955 59.3116 30.8431 59.3799 29.6889C59.455 28.4213 59.6878 27.412 60.8832 26.9837Z" fill="#FC9460"/>
<path d="M92.1452 26.9837C89.7403 26.122 88.2375 29.0877 88.2375 29.0877V35.4005C88.2375 35.4005 90.0406 36.6032 91.243 36.0019C92.503 35.3719 92.2347 34.1985 92.4454 33.2965C92.5858 32.6955 93.7167 30.8431 93.6484 29.6889C93.5734 28.4213 93.3405 27.412 92.1452 26.9837Z" fill="#FFAA7B"/>
<path d="M89.7395 43.059C89.1474 39.9253 88.8377 36.145 88.8377 36.145L83.1262 39.7523C83.1262 39.7523 81.9237 52.0772 83.1262 59.2918C83.9635 64.3153 87.3344 73.7209 88.8377 71.0155C90.0351 68.8605 89.4124 66.8456 89.7395 64.4021C90.3066 60.1667 91.9943 57.8508 92.1441 53.5802C92.29 49.4223 90.5119 47.1471 89.7395 43.059Z" fill="#7B440A"/>
<path d="M63.0134 42.8793C63.6055 39.7456 63.9152 35.9653 63.9152 35.9653L69.6268 39.5726C69.6268 39.5726 70.8293 51.8975 69.6268 59.1121C68.7895 64.1356 65.4185 73.5413 63.9152 70.8358C62.7178 68.6808 63.3406 66.6659 63.0134 64.2224C62.4463 59.987 60.7586 57.6712 60.6088 53.4006C60.463 49.2426 62.241 46.9674 63.0134 42.8793Z" fill="#7B440A"/>
<path d="M90.04 31.9378C90.04 39.7408 83.9836 52.3791 76.5127 52.3791C69.0417 52.3791 62.9854 39.7408 62.9854 31.9378C62.9854 27.556 64.4967 19.7473 67.4945 16.9064C69.835 14.6884 73.2371 16.9075 76.5127 16.9075C79.7882 16.9075 83.491 14.6895 85.8315 16.9075C88.8293 19.7483 90.04 27.556 90.04 31.9378Z" fill="#FFC7AB"/>
<path d="M76.5127 52.3789C83.9836 52.3789 70.5005 49.3717 70.5005 33.4396C70.5005 17.5074 77.7151 16.6057 77.7151 16.6057C74.4396 16.6057 69.835 14.6882 67.4945 16.9062C64.4967 19.747 62.9854 27.5557 62.9854 31.9376C62.9854 39.7406 69.0417 52.3789 76.5127 52.3789Z" fill="#FFAA7B"/>
<path d="M83.4264 6.08441C83.4264 9.90289 80.3311 14.2008 76.5126 14.2008C72.6942 14.2008 69.2979 9.90289 69.2979 6.08441C69.2979 2.26593 72.6942 0.0722656 76.5126 0.0722656C80.3311 0.0722656 83.4264 2.26593 83.4264 6.08441Z" fill="#9C550A"/>
<path d="M75.6106 3.07848C75.6106 6.89696 80.3311 14.2009 76.5127 14.2009C72.6942 14.2009 69.2979 9.90301 69.2979 6.08453C69.2979 2.26605 72.6942 0.0723816 76.5127 0.0723816C77.4143 0.0723816 75.6106 -0.740003 75.6106 3.07848Z" fill="#7B440A"/>
<path d="M76.2118 5.18311C71.6966 5.18304 69.2979 7.28736 69.2979 7.28736L69.5985 9.39161H82.8252L83.4264 7.28736C83.4264 7.28736 80.7209 5.18317 76.2118 5.18311Z" fill="#EF49DF"/>
<path d="M91.8432 22.0168C91.8432 26.4499 92.1022 31.1069 89.1378 28.6302C88.4429 28.0497 88.1953 26.0503 87.8267 23.8749C87.4625 21.725 86.9801 19.4031 85.8311 18.1089C83.4434 15.4195 78.0153 17.5077 76.2117 17.5077C74.408 17.5077 69.5404 15.1908 67.494 18.1089C66.6422 19.3236 66.2911 21.6839 65.991 23.8749C65.69 26.0724 65.4404 28.0996 64.7886 28.6302C62.3325 30.6295 60.5801 26.003 60.5801 22.0168C60.5801 13.3838 67.5786 6.38525 76.2117 6.38525C84.8447 6.38525 91.8432 13.3838 91.8432 22.0168Z" fill="#9C550A"/>
<path d="M76.2117 6.38525C67.5786 6.38525 60.5801 13.3838 60.5801 22.0168C60.5801 26.003 62.3325 30.6295 64.7886 28.6302C65.4404 28.0996 65.69 26.0724 65.991 23.8749C66.2911 21.6839 66.6422 19.3236 67.494 18.1089C69.5404 15.1908 74.408 17.5077 75.9111 17.5077C75.9111 17.5077 73.8068 16.3053 73.8068 12.3974C73.8068 8.48951 76.2117 6.38525 76.2117 6.38525Z" fill="#7B440A"/>
<path d="M86.1455 73.4607L100.274 58.0897C100.274 58.0897 102.346 57.5497 103.6 57.0085C104.819 56.4823 106.587 55.3843 106.587 55.3843H133.04C133.04 55.3843 136.593 57.328 139.052 58.0897C143.993 59.62 152.279 61.8276 152.279 67C152.279 74.2696 152.279 88.0002 152.279 88.0002H86.1455V73.4607Z" fill="#EFE449"/>
<path d="M136.914 70.7724C136.314 74.6804 136.914 88 136.914 88H144.43C144.43 84.5999 144.595 79.4972 144.43 77.686C144.054 73.5525 137.545 66.67 136.914 70.7724Z" fill="#D7CD41"/>
<path d="M100.274 57.7892C102.324 57.7892 104.783 56.2861 104.783 56.2861L113.501 59.5928C113.501 59.5928 104.075 61.6971 101.476 67.4086C99.6679 71.3839 100.274 88.0001 100.274 88.0001H86.0001C86.0001 88.0001 85.9999 73.4609 86.0001 67.4086C86.0003 61.2056 98.4705 57.7892 100.274 57.7892Z" fill="#D7CD41"/>
<path d="M110.195 48.771C114.102 48.771 113.802 51.5407 119.815 51.4765C125.225 51.4187 124.924 48.771 129.434 48.771C131.237 48.771 134.543 52.6789 134.543 55.9856C134.543 58.3904 125.247 60.1817 119.815 60.1941C114.266 60.2068 104.482 58.0898 104.482 55.9856C104.483 52.3615 108.691 48.771 110.195 48.771Z" fill="#D7CD41"/>
<path d="M110.195 48.771C114.102 48.771 114.703 51.4765 119.815 51.4765C120.715 51.4765 114.009 50.5746 112.899 55.3844C112.136 58.691 113.801 59.5929 113.801 59.5929C113.801 59.5929 104.482 58.0898 104.482 55.9856C104.483 52.3615 108.691 48.771 110.195 48.771Z" fill="#C1B83D"/>
<path d="M103.883 26.9837C106.288 26.122 107.791 29.0877 107.791 29.0877V35.4005C107.791 35.4005 105.988 36.6032 104.785 36.0019C103.525 35.3719 103.794 34.1985 103.583 33.2965C103.443 32.6955 102.312 30.8431 102.38 29.6889C102.455 28.4213 102.688 27.412 103.883 26.9837Z" fill="#FC9460"/>
<path d="M135.145 26.9837C132.74 26.122 131.237 29.0877 131.237 29.0877V35.4005C131.237 35.4005 133.041 36.6032 134.243 36.0019C135.503 35.3719 135.235 34.1985 135.445 33.2965C135.586 32.6955 136.717 30.8431 136.648 29.6889C136.573 28.4213 136.341 27.412 135.145 26.9837Z" fill="#FFAA7B"/>
<path d="M132.74 43.059C132.147 39.9253 131.838 36.145 131.838 36.145L126.126 39.7523C126.126 39.7523 124.924 52.0772 126.126 59.2918C126.963 64.3153 130.334 73.7209 131.838 71.0155C133.035 68.8605 132.412 66.8456 132.74 64.4021C133.307 60.1667 134.994 57.8508 135.144 53.5802C135.29 49.4223 133.512 47.1471 132.74 43.059Z" fill="#212121"/>
<path d="M106.013 42.8793C106.605 39.7456 106.915 35.9653 106.915 35.9653L112.627 39.5726C112.627 39.5726 113.829 51.8975 112.627 59.1121C111.789 64.1356 108.419 73.5413 106.915 70.8358C105.718 68.6808 106.341 66.6659 106.013 64.2224C105.446 59.987 103.759 57.6712 103.609 53.4006C103.463 49.2426 105.241 46.9674 106.013 42.8793Z" fill="#212121"/>
<path d="M133.04 31.9378C133.04 39.7408 126.984 52.3791 119.513 52.3791C112.042 52.3791 105.985 39.7408 105.985 31.9378C105.985 27.556 107.497 19.7473 110.494 16.9064C112.835 14.6884 116.237 16.9075 119.513 16.9075C122.788 16.9075 126.491 14.6895 128.832 16.9075C131.829 19.7483 133.04 27.556 133.04 31.9378Z" fill="#FFC7AB"/>
<path d="M119.513 52.3789C126.984 52.3789 113.501 49.3717 113.501 33.4396C113.501 17.5074 120.715 16.6057 120.715 16.6057C117.44 16.6057 112.835 14.6882 110.494 16.9062C107.497 19.747 105.985 27.5557 105.985 31.9376C105.985 39.7406 112.042 52.3789 119.513 52.3789Z" fill="#FFAA7B"/>
<path d="M126.426 6.08441C126.426 9.90289 123.331 14.2008 119.513 14.2008C115.694 14.2008 112.298 9.90289 112.298 6.08441C112.298 2.26593 115.694 0.0722656 119.513 0.0722656C123.331 0.0722656 126.426 2.26593 126.426 6.08441Z" fill="#212121"/>
<path d="M118.611 3.07848C118.611 6.89696 123.331 14.2009 119.513 14.2009C115.694 14.2009 112.298 9.90301 112.298 6.08453C112.298 2.26605 115.694 0.0723816 119.513 0.0723816C120.414 0.0723816 118.611 -0.740003 118.611 3.07848Z" fill="#2E2E2E"/>
<path d="M119.212 5.18311C114.697 5.18304 112.298 7.28736 112.298 7.28736L112.598 9.39161H125.825L126.426 7.28736C126.426 7.28736 123.721 5.18317 119.212 5.18311Z" fill="#E7EF49"/>
<path d="M134.843 22.0168C134.843 26.4499 135.102 31.1069 132.138 28.6302C131.443 28.0497 131.195 26.0503 130.827 23.8749C130.462 21.725 129.98 19.4031 128.831 18.1089C126.443 15.4195 121.015 17.5077 119.212 17.5077C117.408 17.5077 112.54 15.1908 110.494 18.1089C109.642 19.3236 109.291 21.6839 108.991 23.8749C108.69 26.0724 108.44 28.0996 107.789 28.6302C105.333 30.6295 103.58 26.003 103.58 22.0168C103.58 13.3838 110.579 6.38525 119.212 6.38525C127.845 6.38525 134.843 13.3838 134.843 22.0168Z" fill="#212121"/>
<path d="M119.212 6.38525C110.579 6.38525 103.58 13.3838 103.58 22.0168C103.58 26.003 105.333 30.6295 107.789 28.6302C108.44 28.0996 108.69 26.0724 108.991 23.8749C109.291 21.6839 109.642 19.3236 110.494 18.1089C112.54 15.1908 117.408 17.5077 118.911 17.5077C118.911 17.5077 116.807 16.3053 116.807 12.3974C116.807 8.48951 119.212 6.38525 119.212 6.38525Z" fill="#2E2E2E"/>
<path d="M0.145508 73.4607L14.2741 58.0897C14.2741 58.0897 16.3459 57.5497 17.5998 57.0085C18.8189 56.4823 20.5868 55.3843 20.5868 55.3843H47.0403C47.0403 55.3843 50.593 57.328 53.0524 58.0897C57.9933 59.62 66.2791 59.1056 66.2791 64.2781C66.2791 71.5476 66.2791 88.0002 66.2791 88.0002H0.145508V73.4607Z" fill="#57CBF5"/>
<path d="M50.9143 70.7724C50.3139 74.6804 50.9144 84.5999 50.9144 84.5999C50.9144 84.5999 58.8453 82.2515 58.4303 77.686C58.0545 73.5525 51.5446 66.67 50.9143 70.7724Z" fill="#35A4CD"/>
<path d="M14.2741 57.7892C16.3243 57.7892 18.7832 56.2861 18.7832 56.2861L27.5008 59.5928C27.5008 59.5928 18.0746 61.6971 15.4763 67.4086C13.6679 71.3839 14.274 88.0001 14.274 88.0001H9.69985e-05C9.69985e-05 88.0001 -0.000121248 73.4609 9.69985e-05 67.4086C0.000320677 61.2056 12.4705 57.7892 14.2741 57.7892Z" fill="#35A4CD"/>
<path d="M24.1949 48.771C28.1019 48.771 27.8022 51.5407 33.8148 51.4765C39.2253 51.4187 38.9237 48.771 43.4338 48.771C45.2368 48.771 48.5432 52.6789 48.5432 55.9856C48.5432 58.3904 39.2467 60.1817 33.8148 60.1941C28.2661 60.2068 18.4822 58.0898 18.4824 55.9856C18.4828 52.3615 22.6909 48.771 24.1949 48.771Z" fill="#35A4CD"/>
<path d="M24.1949 48.771C28.1019 48.771 28.7031 51.4765 33.8148 51.4765C34.7152 51.4765 28.0094 50.5746 26.8994 55.3844C26.1363 58.691 27.8013 59.5929 27.8013 59.5929C27.8013 59.5929 18.4822 58.0898 18.4824 55.9856C18.4828 52.3615 22.6909 48.771 24.1949 48.771Z" fill="#2288AC"/>
<path d="M17.8832 26.9837C20.288 26.122 21.7909 29.0877 21.7909 29.0877V35.4005C21.7909 35.4005 19.9878 36.6032 18.7853 36.0019C17.5253 35.3719 17.7936 34.1985 17.5829 33.2965C17.4425 32.6955 16.3116 30.8431 16.3799 29.6889C16.455 28.4213 16.6878 27.412 17.8832 26.9837Z" fill="#FC9460"/>
<path d="M49.1452 26.9837C46.7403 26.122 45.2375 29.0877 45.2375 29.0877V35.4005C45.2375 35.4005 47.0406 36.6032 48.243 36.0019C49.503 35.3719 49.2347 34.1985 49.4454 33.2965C49.5858 32.6955 50.7167 30.8431 50.6484 29.6889C50.5734 28.4213 50.3405 27.412 49.1452 26.9837Z" fill="#FFAA7B"/>
<path d="M46.7395 43.059C46.1474 39.9253 45.8377 36.145 45.8377 36.145L40.1262 39.7523C40.1262 39.7523 38.9237 52.0772 40.1262 59.2918C40.9635 64.3153 44.3344 73.7209 45.8377 71.0155C47.0351 68.8605 46.4124 66.8456 46.7395 64.4021C47.3066 60.1667 48.9943 57.8508 49.1441 53.5802C49.29 49.4223 47.5119 47.1471 46.7395 43.059Z" fill="#7B440A"/>
<path d="M20.0134 42.8793C20.6055 39.7456 20.9152 35.9653 20.9152 35.9653L26.6268 39.5726C26.6268 39.5726 27.8293 51.8975 26.6268 59.1121C25.7895 64.1356 22.4185 73.5413 20.9152 70.8358C19.7178 68.6808 20.3406 66.6659 20.0134 64.2224C19.4463 59.987 17.7586 57.6712 17.6088 53.4006C17.463 49.2426 19.241 46.9674 20.0134 42.8793Z" fill="#7B440A"/>
<path d="M47.04 31.9378C47.04 39.7408 40.9836 52.3791 33.5127 52.3791C26.0417 52.3791 19.9854 39.7408 19.9854 31.9378C19.9854 27.556 21.4967 19.7473 24.4945 16.9064C26.835 14.6884 30.2371 16.9075 33.5127 16.9075C36.7882 16.9075 40.491 14.6895 42.8315 16.9075C45.8293 19.7483 47.04 27.556 47.04 31.9378Z" fill="#FFC7AB"/>
<path d="M33.5127 52.3789C40.9836 52.3789 27.5005 49.3717 27.5005 33.4396C27.5005 17.5074 34.7151 16.6057 34.7151 16.6057C31.4396 16.6057 26.835 14.6882 24.4945 16.9062C21.4967 19.747 19.9854 27.5557 19.9854 31.9376C19.9854 39.7406 26.0417 52.3789 33.5127 52.3789Z" fill="#FFAA7B"/>
<path d="M40.4264 6.08441C40.4264 9.90289 37.3311 14.2008 33.5126 14.2008C29.6942 14.2008 26.2979 9.90289 26.2979 6.08441C26.2979 2.26593 29.6942 0.0722656 33.5126 0.0722656C37.3311 0.0722656 40.4264 2.26593 40.4264 6.08441Z" fill="#9C550A"/>
<path d="M32.6106 3.07848C32.6106 6.89696 37.3311 14.2009 33.5127 14.2009C29.6942 14.2009 26.2979 9.90301 26.2979 6.08453C26.2979 2.26605 29.6942 0.0723816 33.5127 0.0723816C34.4143 0.0723816 32.6106 -0.740003 32.6106 3.07848Z" fill="#7B440A"/>
<path d="M33.2118 5.18311C28.6966 5.18304 26.2979 7.28736 26.2979 7.28736L26.5985 9.39161H39.8252L40.4264 7.28736C40.4264 7.28736 37.7209 5.18317 33.2118 5.18311Z" fill="#57CBF5"/>
<path d="M48.8432 22.0168C48.8432 26.4499 49.1022 31.1069 46.1378 28.6302C45.4429 28.0497 45.1953 26.0503 44.8267 23.8749C44.4625 21.725 43.9801 19.4031 42.8311 18.1089C40.4434 15.4195 35.0153 17.5077 33.2117 17.5077C31.408 17.5077 26.5404 15.1908 24.494 18.1089C23.6422 19.3236 23.2911 21.6839 22.991 23.8749C22.69 26.0724 22.4404 28.0996 21.7886 28.6302C19.3325 30.6295 17.5801 26.003 17.5801 22.0168C17.5801 13.3838 24.5786 6.38525 33.2117 6.38525C41.8447 6.38525 48.8432 13.3838 48.8432 22.0168Z" fill="#9C550A"/>
<path d="M33.2117 6.38525C24.5786 6.38525 17.5801 13.3838 17.5801 22.0168C17.5801 26.003 19.3325 30.6295 21.7886 28.6302C22.4404 28.0996 22.69 26.0724 22.991 23.8749C23.2911 21.6839 23.6422 19.3236 24.494 18.1089C26.5404 15.1908 31.408 17.5077 32.9111 17.5077C32.9111 17.5077 30.8068 16.3053 30.8068 12.3974C30.8068 8.48951 33.2117 6.38525 33.2117 6.38525Z" fill="#7B440A"/>
<path d="M57.7814 80.5278L39.7457 81.1096L38.582 82.2733H57.7814V80.5278Z" fill="#787F84"/>
<path d="M51.9648 49.0366C51.9648 46.8275 53.7557 45.0366 55.9648 45.0366H98.001C100.21 45.0366 102.001 46.8275 102.001 49.0366V79.1092C102.001 80.2138 101.106 81.1092 100.001 81.1092H53.9648C52.8603 81.1092 51.9648 80.2138 51.9648 79.1092V49.0366Z" fill="#EDEDED"/>
<path d="M51.9648 49.5915C51.9648 48.5378 52.3834 47.5273 53.1285 46.7822V80.7768L52.8025 80.544C52.2768 80.1685 51.9648 79.5624 51.9648 78.9164V49.5915Z" fill="#DADADA"/>
<circle cx="79.3104" cy="63.0727" r="2.90908" fill="#D9D9D9"/>
<path d="M82.2185 63.0727C82.2185 64.6793 80.9161 65.9817 79.3094 65.9817C78.7273 65.9817 81.637 65.3999 81.637 63.0727C81.6369 60.7454 78.7279 60.1636 79.3094 60.1636C80.9161 60.1636 82.2185 61.466 82.2185 63.0727Z" fill="#CFCECE"/>
<rect x="38" y="81.1094" width="52.3634" height="6.98179" rx="2" fill="#A3A8AB"/>
<path d="M53.1279 82.1094C53.1279 81.5571 53.5756 81.1094 54.1279 81.1094H100C101.105 81.1094 102 82.0048 102 83.1094V86.0912C102 87.1957 101.105 88.0912 100 88.0912H54.1279C53.5756 88.0912 53.1279 87.6435 53.1279 87.0912V82.1094Z" fill="#C6C6C6"/>
</svg>
