<svg width="153" height="89" viewBox="0 0 153 89" fill="none" xmlns="http://www.w3.org/2000/svg">
<path d="M37 61.9375L55.2941 55.0629L61.8469 53.5591H91.6127L97.3114 55.5625L113.933 70.2842V87.847H38.3948L37 61.9375Z" fill="#77CE7E"/>
<path d="M96.6411 69.7354C95.9522 73.8437 96.6412 84.2718 96.6412 84.2718C96.6412 84.2718 105.74 81.803 105.264 77.0034C104.833 72.658 97.3643 65.4227 96.6411 69.7354Z" fill="#548BED"/>
<path d="M42.1886 60.5113C43.3898 59.4845 50.7983 56.1117 60.1225 54.1147L71.0348 60.5113C71.0348 60.5113 60.2178 59.3059 57.2369 65.3103C55.1621 69.4894 56.3171 83.0942 56.3171 83.0942L38.3946 73.7841C38.3946 73.7841 37.0143 64.9346 42.1886 60.5113Z" fill="#7255CE"/>
<path d="M42.1886 60.5113C43.3898 59.4845 50.7983 56.1117 60.1225 54.1147L71.0348 60.5113C71.0348 60.5113 60.2178 59.3059 57.2369 65.3103C55.1621 69.4894 56.3171 83.0942 56.3171 83.0942L38.3946 73.7841C38.3946 73.7841 37.0143 64.9346 42.1886 60.5113Z" fill="#6DC474"/>
<path d="M40.0673 63.1637C42.9107 59.3044 42.827 57.951 47.7329 63.4702L47.7703 63.5158C49.8179 66.0172 51.1057 67.5905 51.1057 74.8151V80.6408L38.3956 73.7839C38.3956 73.7839 35.775 68.9894 40.0673 63.1637Z" fill="#74758A"/>
<path d="M109.386 60.3619C108.185 59.335 99.3695 55.349 90.0454 53.3521L82.6865 55.805L75.9409 59.4844V88.0001H113.933L113.933 71.2338C113.933 71.2338 114.56 64.7852 109.386 60.3619Z" fill="#84D78B"/>
<path d="M114.882 87.8552C114.882 87.8552 117.257 65.0605 109.183 60.3115C108.604 59.971 108.234 59.6934 108.234 59.6934C108.234 59.6934 106.182 60.6888 103.842 63.3211L103.805 63.3667C101.757 65.8682 100.47 67.4415 100.47 74.6661V87.8552H114.882Z" fill="#95DE9A"/>
<rect x="81.1533" y="70.5229" width="12.2648" height="17.1707" rx="4" fill="#95DE9A"/>
<path d="M66.4355 41.0874H85.446V54.272L75.9408 59.4846L66.4355 53.0456V41.0874Z" fill="#FFAA7B"/>
<path d="M66.4355 41.0874H75.9408C75.9408 41.0874 77.1672 48.7529 74.7143 53.6588C73.8279 55.4316 71.9547 56.725 71.9547 56.725L66.4355 53.0456V41.0874Z" fill="#FC9460"/>
<path d="M66.7428 48.7523C67.5609 51.2053 68.2755 52.7383 69.502 54.2714C70.7285 55.8045 74.1013 58.2574 74.1013 58.2574C74.1013 58.2574 72.2615 59.4839 67.6623 63.7766C65.8141 65.5016 63.9069 60.9044 62.7572 58.8708C59.0769 52.3608 60.917 52.1866 62.1432 51.2053C63.9534 49.7566 66.436 47.8325 66.7428 48.7523Z" fill="#84D78B"/>
<path d="M66.7422 48.7523C67.5604 51.2053 69.8073 54.8845 69.8073 54.8845C69.8073 54.8845 67.9686 54.8845 65.8217 56.7243C63.8191 58.4405 63.8494 61.0169 63.6758 60.7104C58.8134 52.1251 60.9164 52.1866 62.1427 51.2053C63.9529 49.7566 66.4354 47.8325 66.7422 48.7523Z" fill="#77CE7E"/>
<path d="M85.4467 48.7104C84.6384 51.1666 83.9298 52.7025 82.7095 54.2404C81.4891 55.7784 78.1261 58.2447 78.1261 58.2447C78.1261 58.2447 79.9707 59.4639 84.587 63.7382C86.442 65.4559 88.3309 60.8511 89.4725 58.813C93.1269 52.2884 91.2861 52.1215 90.056 51.1451C88.24 49.7036 85.7499 47.7894 85.4467 48.7104Z" fill="#95DE9A"/>
<path d="M59.3859 25.3032C61.8389 24.4243 63.3718 27.4493 63.3718 27.4493V33.8884C63.3718 33.8884 61.5326 35.1151 60.3062 34.5018C59.0209 33.8592 59.2946 32.6624 59.0797 31.7423C58.9365 31.1293 57.783 29.2398 57.8526 28.0626C57.9292 26.7696 58.1667 25.7401 59.3859 25.3032Z" fill="#FC9460"/>
<path d="M91.2752 25.3032C88.8222 24.4243 87.2893 27.4493 87.2893 27.4493V33.8884C87.2893 33.8884 89.1285 35.1151 90.355 34.5018C91.6402 33.8592 91.3665 32.6624 91.5815 31.7423C91.7246 31.1293 92.8782 29.2398 92.8085 28.0626C92.732 26.7696 92.4945 25.7401 91.2752 25.3032Z" fill="#FFAA7B"/>
<path d="M89.7383 29.8281C89.7383 37.7872 83.5608 50.6783 75.9405 50.6783C68.3201 50.6783 62.1426 37.7872 62.1426 29.8281C62.1426 25.3586 62.151 15.1625 65.2088 12.2648C67.5961 10.0024 72.2928 11.9579 75.6338 11.9579C78.9749 11.9579 84.2848 10.0021 86.6721 12.2645C89.7299 15.1622 89.7383 25.3586 89.7383 29.8281Z" fill="#FFC7AB"/>
<path d="M75.9405 50.7654C86.0589 49.6727 70.7279 47.833 70.7279 31.5821C70.7279 15.3313 75.6338 12.5717 75.6338 12.5717C72.261 11.9583 68.2093 10.3093 65.822 12.5717C62.7643 15.4694 62.1426 25.4458 62.1426 29.9153C62.1426 38.3278 68.5816 50.5925 75.9405 50.7654Z" fill="#FFAA7B"/>
<path d="M92.2162 19.931C92.2162 24.4526 93.0936 27.6698 90.0699 25.1435C89.3612 24.5513 88.2995 23.683 87.9236 21.4641C87.552 19.2711 88.8434 15.8708 87.0037 13.7986C84.2815 10.7324 79.6448 13.1853 75.9647 13.1853C72.2847 13.1853 69.0854 10.8833 65.8462 13.7986C63.0874 16.2815 64.3126 19.2292 64.0065 21.4641C63.6995 23.7054 63.1383 24.6022 62.4734 25.1435C59.9682 27.1828 60.3277 25.8365 60.3277 21.7707C60.3277 17.9969 55.9878 12.2655 58.7946 10.1191C61.4837 8.06295 63.7006 7.97282 65.5402 5.82648C66.3287 4.60001 68.2998 0.000716924 77.4985 0.000716924C78.8508 0.000716924 84.7564 -0.0459278 86.3904 0.613267C87.9767 1.25324 83.9374 2.14636 86.697 3.37353C90.0897 5.26922 92.5753 7.32377 94.3626 11.6522C95.5953 14.6376 92.2162 16.9566 92.2162 19.931Z" fill="#E7D149"/>
<path d="M74.4071 13.1845C71.9787 13.1845 69.0854 10.8831 65.8462 13.7984C63.0874 16.2813 64.3126 19.229 64.0065 21.4639C63.6995 23.7052 63.1383 24.602 62.4734 25.1433C59.9682 27.1826 60.3277 25.8363 60.3277 21.7705C60.3277 17.9967 55.9878 12.2653 58.7946 10.1189C61.4837 8.06273 63.7006 7.9726 65.5402 5.82626C66.3287 4.59978 68.2998 0.000488281 77.4985 0.000488281C78.8508 0.000488281 73.3055 2.51341 72.874 7.66538C72.4424 12.8173 76.8354 13.1845 74.4071 13.1845Z" fill="#D2BE41"/>
<path d="M86.1455 73.4607L100.274 58.0897C100.274 58.0897 102.346 57.5497 103.6 57.0085C104.819 56.4823 106.587 55.3843 106.587 55.3843H133.04C133.04 55.3843 136.593 57.328 139.052 58.0897C143.993 59.62 152.279 61.8276 152.279 67C152.279 74.2696 152.279 88.0002 152.279 88.0002H86.1455V73.4607Z" fill="#EFE449"/>
<path d="M136.914 70.7724C136.314 74.6804 136.914 88 136.914 88H144.43C144.43 84.5999 144.595 79.4972 144.43 77.686C144.054 73.5525 137.545 66.67 136.914 70.7724Z" fill="#D7CD41"/>
<path d="M100.274 57.7892C102.324 57.7892 104.783 56.2861 104.783 56.2861L113.501 59.5928C113.501 59.5928 104.075 61.6971 101.476 67.4086C99.6679 71.3839 100.274 88.0001 100.274 88.0001H86.0001C86.0001 88.0001 85.9999 73.4609 86.0001 67.4086C86.0003 61.2056 98.4705 57.7892 100.274 57.7892Z" fill="#D7CD41"/>
<path d="M110.195 48.771C114.102 48.771 113.802 51.5407 119.815 51.4765C125.225 51.4187 124.924 48.771 129.434 48.771C131.237 48.771 134.543 52.6789 134.543 55.9856C134.543 58.3904 125.247 60.1817 119.815 60.1941C114.266 60.2068 104.482 58.0898 104.482 55.9856C104.483 52.3615 108.691 48.771 110.195 48.771Z" fill="#D7CD41"/>
<path d="M110.195 48.771C114.102 48.771 114.703 51.4765 119.815 51.4765C120.715 51.4765 114.009 50.5746 112.899 55.3844C112.136 58.691 113.801 59.5929 113.801 59.5929C113.801 59.5929 104.482 58.0898 104.482 55.9856C104.483 52.3615 108.691 48.771 110.195 48.771Z" fill="#C1B83D"/>
<path d="M103.883 26.9837C106.288 26.122 107.791 29.0877 107.791 29.0877V35.4005C107.791 35.4005 105.988 36.6032 104.785 36.0019C103.525 35.3719 103.794 34.1985 103.583 33.2965C103.443 32.6955 102.312 30.8431 102.38 29.6889C102.455 28.4213 102.688 27.412 103.883 26.9837Z" fill="#FC9460"/>
<path d="M135.145 26.9837C132.74 26.122 131.237 29.0877 131.237 29.0877V35.4005C131.237 35.4005 133.041 36.6032 134.243 36.0019C135.503 35.3719 135.235 34.1985 135.445 33.2965C135.586 32.6955 136.717 30.8431 136.648 29.6889C136.573 28.4213 136.341 27.412 135.145 26.9837Z" fill="#FFAA7B"/>
<path d="M132.74 43.059C132.147 39.9253 131.838 36.145 131.838 36.145L126.126 39.7523C126.126 39.7523 124.924 52.0772 126.126 59.2918C126.963 64.3153 130.334 73.7209 131.838 71.0155C133.035 68.8605 132.412 66.8456 132.74 64.4021C133.307 60.1667 134.994 57.8508 135.144 53.5802C135.29 49.4223 133.512 47.1471 132.74 43.059Z" fill="#212121"/>
<path d="M106.013 42.8793C106.605 39.7456 106.915 35.9653 106.915 35.9653L112.627 39.5726C112.627 39.5726 113.829 51.8975 112.627 59.1121C111.789 64.1356 108.419 73.5413 106.915 70.8358C105.718 68.6808 106.341 66.6659 106.013 64.2224C105.446 59.987 103.759 57.6712 103.609 53.4006C103.463 49.2426 105.241 46.9674 106.013 42.8793Z" fill="#212121"/>
<path d="M133.04 31.9378C133.04 39.7408 126.984 52.3791 119.513 52.3791C112.042 52.3791 105.985 39.7408 105.985 31.9378C105.985 27.556 107.497 19.7473 110.494 16.9064C112.835 14.6884 116.237 16.9075 119.513 16.9075C122.788 16.9075 126.491 14.6895 128.832 16.9075C131.829 19.7483 133.04 27.556 133.04 31.9378Z" fill="#FFC7AB"/>
<path d="M119.513 52.3789C126.984 52.3789 113.501 49.3717 113.501 33.4396C113.501 17.5074 120.715 16.6057 120.715 16.6057C117.44 16.6057 112.835 14.6882 110.494 16.9062C107.497 19.747 105.985 27.5557 105.985 31.9376C105.985 39.7406 112.042 52.3789 119.513 52.3789Z" fill="#FFAA7B"/>
<path d="M126.426 6.08441C126.426 9.90289 123.331 14.2008 119.513 14.2008C115.694 14.2008 112.298 9.90289 112.298 6.08441C112.298 2.26593 115.694 0.0722656 119.513 0.0722656C123.331 0.0722656 126.426 2.26593 126.426 6.08441Z" fill="#212121"/>
<path d="M118.611 3.07848C118.611 6.89696 123.331 14.2009 119.513 14.2009C115.694 14.2009 112.298 9.90301 112.298 6.08453C112.298 2.26605 115.694 0.0723816 119.513 0.0723816C120.414 0.0723816 118.611 -0.740003 118.611 3.07848Z" fill="#2E2E2E"/>
<path d="M119.212 5.18311C114.697 5.18304 112.298 7.28736 112.298 7.28736L112.598 9.39161H125.825L126.426 7.28736C126.426 7.28736 123.721 5.18317 119.212 5.18311Z" fill="#E7EF49"/>
<path d="M134.843 22.0168C134.843 26.4499 135.102 31.1069 132.138 28.6302C131.443 28.0497 131.195 26.0503 130.827 23.8749C130.462 21.725 129.98 19.4031 128.831 18.1089C126.443 15.4195 121.015 17.5077 119.212 17.5077C117.408 17.5077 112.54 15.1908 110.494 18.1089C109.642 19.3236 109.291 21.6839 108.991 23.8749C108.69 26.0724 108.44 28.0996 107.789 28.6302C105.333 30.6295 103.58 26.003 103.58 22.0168C103.58 13.3838 110.579 6.38525 119.212 6.38525C127.845 6.38525 134.843 13.3838 134.843 22.0168Z" fill="#212121"/>
<path d="M119.212 6.38525C110.579 6.38525 103.58 13.3838 103.58 22.0168C103.58 26.003 105.333 30.6295 107.789 28.6302C108.44 28.0996 108.69 26.0724 108.991 23.8749C109.291 21.6839 109.642 19.3236 110.494 18.1089C112.54 15.1908 117.408 17.5077 118.911 17.5077C118.911 17.5077 116.807 16.3053 116.807 12.3974C116.807 8.48951 119.212 6.38525 119.212 6.38525Z" fill="#2E2E2E"/>
<path d="M0.145508 73.4607L14.2741 58.0897C14.2741 58.0897 16.3459 57.5497 17.5998 57.0085C18.8189 56.4823 20.5868 55.3843 20.5868 55.3843H47.0403C47.0403 55.3843 50.593 57.328 53.0524 58.0897C57.9933 59.62 66.2791 59.1056 66.2791 64.2781C66.2791 71.5476 66.2791 88.0002 66.2791 88.0002H0.145508V73.4607Z" fill="#57CBF5"/>
<path d="M50.9143 70.7724C50.3139 74.6804 50.9144 84.5999 50.9144 84.5999C50.9144 84.5999 58.8453 82.2515 58.4303 77.686C58.0545 73.5525 51.5446 66.67 50.9143 70.7724Z" fill="#35A4CD"/>
<path d="M14.2741 57.7892C16.3243 57.7892 18.7832 56.2861 18.7832 56.2861L27.5008 59.5928C27.5008 59.5928 18.0746 61.6971 15.4763 67.4086C13.6679 71.3839 14.274 88.0001 14.274 88.0001H9.69985e-05C9.69985e-05 88.0001 -0.000121248 73.4609 9.69985e-05 67.4086C0.000320677 61.2056 12.4705 57.7892 14.2741 57.7892Z" fill="#35A4CD"/>
<path d="M24.1949 48.771C28.1019 48.771 27.8022 51.5407 33.8148 51.4765C39.2253 51.4187 38.9237 48.771 43.4338 48.771C45.2368 48.771 48.5432 52.6789 48.5432 55.9856C48.5432 58.3904 39.2467 60.1817 33.8148 60.1941C28.2661 60.2068 18.4822 58.0898 18.4824 55.9856C18.4828 52.3615 22.6909 48.771 24.1949 48.771Z" fill="#35A4CD"/>
<path d="M24.1949 48.771C28.1019 48.771 28.7031 51.4765 33.8148 51.4765C34.7152 51.4765 28.0094 50.5746 26.8994 55.3844C26.1363 58.691 27.8013 59.5929 27.8013 59.5929C27.8013 59.5929 18.4822 58.0898 18.4824 55.9856C18.4828 52.3615 22.6909 48.771 24.1949 48.771Z" fill="#2288AC"/>
<path d="M17.8832 26.9837C20.288 26.122 21.7909 29.0877 21.7909 29.0877V35.4005C21.7909 35.4005 19.9878 36.6032 18.7853 36.0019C17.5253 35.3719 17.7936 34.1985 17.5829 33.2965C17.4425 32.6955 16.3116 30.8431 16.3799 29.6889C16.455 28.4213 16.6878 27.412 17.8832 26.9837Z" fill="#FC9460"/>
<path d="M49.1452 26.9837C46.7403 26.122 45.2375 29.0877 45.2375 29.0877V35.4005C45.2375 35.4005 47.0406 36.6032 48.243 36.0019C49.503 35.3719 49.2347 34.1985 49.4454 33.2965C49.5858 32.6955 50.7167 30.8431 50.6484 29.6889C50.5734 28.4213 50.3405 27.412 49.1452 26.9837Z" fill="#FFAA7B"/>
<path d="M46.7395 43.059C46.1474 39.9253 45.8377 36.145 45.8377 36.145L40.1262 39.7523C40.1262 39.7523 38.9237 52.0772 40.1262 59.2918C40.9635 64.3153 44.3344 73.7209 45.8377 71.0155C47.0351 68.8605 46.4124 66.8456 46.7395 64.4021C47.3066 60.1667 48.9943 57.8508 49.1441 53.5802C49.29 49.4223 47.5119 47.1471 46.7395 43.059Z" fill="#7B440A"/>
<path d="M20.0134 42.8793C20.6055 39.7456 20.9152 35.9653 20.9152 35.9653L26.6268 39.5726C26.6268 39.5726 27.8293 51.8975 26.6268 59.1121C25.7895 64.1356 22.4185 73.5413 20.9152 70.8358C19.7178 68.6808 20.3406 66.6659 20.0134 64.2224C19.4463 59.987 17.7586 57.6712 17.6088 53.4006C17.463 49.2426 19.241 46.9674 20.0134 42.8793Z" fill="#7B440A"/>
<path d="M47.04 31.9378C47.04 39.7408 40.9836 52.3791 33.5127 52.3791C26.0417 52.3791 19.9854 39.7408 19.9854 31.9378C19.9854 27.556 21.4967 19.7473 24.4945 16.9064C26.835 14.6884 30.2371 16.9075 33.5127 16.9075C36.7882 16.9075 40.491 14.6895 42.8315 16.9075C45.8293 19.7483 47.04 27.556 47.04 31.9378Z" fill="#FFC7AB"/>
<path d="M33.5127 52.3789C40.9836 52.3789 27.5005 49.3717 27.5005 33.4396C27.5005 17.5074 34.7151 16.6057 34.7151 16.6057C31.4396 16.6057 26.835 14.6882 24.4945 16.9062C21.4967 19.747 19.9854 27.5557 19.9854 31.9376C19.9854 39.7406 26.0417 52.3789 33.5127 52.3789Z" fill="#FFAA7B"/>
<path d="M40.4264 6.08441C40.4264 9.90289 37.3311 14.2008 33.5126 14.2008C29.6942 14.2008 26.2979 9.90289 26.2979 6.08441C26.2979 2.26593 29.6942 0.0722656 33.5126 0.0722656C37.3311 0.0722656 40.4264 2.26593 40.4264 6.08441Z" fill="#9C550A"/>
<path d="M32.6106 3.07848C32.6106 6.89696 37.3311 14.2009 33.5127 14.2009C29.6942 14.2009 26.2979 9.90301 26.2979 6.08453C26.2979 2.26605 29.6942 0.0723816 33.5127 0.0723816C34.4143 0.0723816 32.6106 -0.740003 32.6106 3.07848Z" fill="#7B440A"/>
<path d="M33.2118 5.18311C28.6966 5.18304 26.2979 7.28736 26.2979 7.28736L26.5985 9.39161H39.8252L40.4264 7.28736C40.4264 7.28736 37.7209 5.18317 33.2118 5.18311Z" fill="#57CBF5"/>
<path d="M48.8432 22.0168C48.8432 26.4499 49.1022 31.1069 46.1378 28.6302C45.4429 28.0497 45.1953 26.0503 44.8267 23.8749C44.4625 21.725 43.9801 19.4031 42.8311 18.1089C40.4434 15.4195 35.0153 17.5077 33.2117 17.5077C31.408 17.5077 26.5404 15.1908 24.494 18.1089C23.6422 19.3236 23.2911 21.6839 22.991 23.8749C22.69 26.0724 22.4404 28.0996 21.7886 28.6302C19.3325 30.6295 17.5801 26.003 17.5801 22.0168C17.5801 13.3838 24.5786 6.38525 33.2117 6.38525C41.8447 6.38525 48.8432 13.3838 48.8432 22.0168Z" fill="#9C550A"/>
<path d="M33.2117 6.38525C24.5786 6.38525 17.5801 13.3838 17.5801 22.0168C17.5801 26.003 19.3325 30.6295 21.7886 28.6302C22.4404 28.0996 22.69 26.0724 22.991 23.8749C23.2911 21.6839 23.6422 19.3236 24.494 18.1089C26.5404 15.1908 31.408 17.5077 32.9111 17.5077C32.9111 17.5077 30.8068 16.3053 30.8068 12.3974C30.8068 8.48951 33.2117 6.38525 33.2117 6.38525Z" fill="#7B440A"/>
<path d="M57.7814 80.5278L39.7457 81.1096L38.582 82.2733H57.7814V80.5278Z" fill="#787F84"/>
<path d="M51.9648 49.0366C51.9648 46.8275 53.7557 45.0366 55.9648 45.0366H98.001C100.21 45.0366 102.001 46.8275 102.001 49.0366V79.1092C102.001 80.2138 101.106 81.1092 100.001 81.1092H53.9648C52.8603 81.1092 51.9648 80.2138 51.9648 79.1092V49.0366Z" fill="#EDEDED"/>
<path d="M51.9648 49.5915C51.9648 48.5378 52.3834 47.5273 53.1285 46.7822V80.7768L52.8025 80.544C52.2768 80.1685 51.9648 79.5624 51.9648 78.9164V49.5915Z" fill="#DADADA"/>
<circle cx="79.3104" cy="63.0727" r="2.90908" fill="#D9D9D9"/>
<path d="M82.2185 63.0727C82.2185 64.6793 80.9161 65.9817 79.3094 65.9817C78.7273 65.9817 81.637 65.3999 81.637 63.0727C81.6369 60.7454 78.7279 60.1636 79.3094 60.1636C80.9161 60.1636 82.2185 61.466 82.2185 63.0727Z" fill="#CFCECE"/>
<rect x="38" y="81.1094" width="52.3634" height="6.98179" rx="2" fill="#A3A8AB"/>
<path d="M53.1279 82.1094C53.1279 81.5571 53.5756 81.1094 54.1279 81.1094H100C101.105 81.1094 102 82.0048 102 83.1094V86.0912C102 87.1957 101.105 88.0912 100 88.0912H54.1279C53.5756 88.0912 53.1279 87.6435 53.1279 87.0912V82.1094Z" fill="#C6C6C6"/>
</svg>
