<svg width="143" height="131" viewBox="0 0 143 131" fill="none" xmlns="http://www.w3.org/2000/svg">
<path d="M99.153 18.2918V13C99.153 7.47715 94.6758 3 89.153 3H12.2451C6.72227 3 2.24512 7.47715 2.24512 13V118C2.24512 123.523 6.72226 128 12.2451 128H89.153C94.6758 128 99.153 123.523 99.153 118V113.195C99.153 107.672 94.6758 103.195 89.153 103.195H39.2329C33.7101 103.195 29.2329 98.7174 29.2329 93.1946V38.2918C29.2329 32.769 33.7101 28.2918 39.233 28.2918H89.153C94.6758 28.2918 99.153 23.8147 99.153 18.2918Z" fill="#F9F7F4" stroke="#F9F7F4" stroke-width="4.5"/>
<path d="M50.6896 71.9704V58.4185C50.6896 56.3475 52.3686 54.6685 54.4396 54.6685H117.865C122.363 54.6685 126.032 51.0655 126.113 46.5682L126.178 42.9855L138.894 63.0048C139.674 64.2319 139.674 65.799 138.894 67.0261L126.175 87.0499L126.115 83.8175C126.032 79.3215 122.364 75.7204 117.867 75.7204H54.4396C52.3686 75.7204 50.6896 74.0415 50.6896 71.9704Z" fill="#F9F7F4" stroke="#F9F7F4" stroke-width="4.5"/>
</svg>
