<svg width="144" height="131" viewBox="0 0 144 131" fill="none" xmlns="http://www.w3.org/2000/svg">
<path d="M99.653 18.2918V13C99.653 7.47715 95.1758 3 89.653 3H12.7451C7.22227 3 2.74512 7.47715 2.74512 13V118C2.74512 123.523 7.22226 128 12.7451 128H89.653C95.1758 128 99.653 123.523 99.653 118V113.195C99.653 107.672 95.1758 103.195 89.653 103.195H39.7329C34.2101 103.195 29.7329 98.7174 29.7329 93.1946V38.2918C29.7329 32.769 34.2101 28.2918 39.733 28.2918H89.653C95.1758 28.2918 99.653 23.8147 99.653 18.2918Z" stroke="#F9F7F4" stroke-width="4.5"/>
<path d="M51.1891 71.9704V58.4185C51.1891 56.3475 52.8681 54.6685 54.9391 54.6685H118.364C122.862 54.6685 126.531 51.0655 126.613 46.5682L126.678 42.9855L139.394 63.0048C140.173 64.2319 140.173 65.799 139.394 67.0261L126.675 87.0499L126.615 83.8175C126.532 79.3215 122.863 75.7204 118.366 75.7204H54.9392C52.8681 75.7204 51.1891 74.0415 51.1891 71.9704Z" stroke="#F9F7F4" stroke-width="4.5"/>
</svg>
