<svg width="189" height="100" viewBox="0 0 189 100" fill="none" xmlns="http://www.w3.org/2000/svg">
<path d="M92.0539 2.75C116.759 2.75 138.353 12.4261 154.583 22.9971C170.822 33.5733 181.838 45.1392 185.437 49.1494L185.579 49.3154C186.946 51.0028 186.764 53.394 185.211 54.8721L185.051 55.0166C180.897 58.5921 168.146 69.1139 151.242 78.7529C134.381 88.3678 113.137 97.25 92.0539 97.25C70.9304 97.2498 50.6413 88.3374 34.8342 78.6904C19.9841 69.6273 8.8893 59.7926 4.48852 55.665L3.69848 54.917C2.10696 53.3967 1.97188 50.9447 3.41333 49.2627L4.12719 48.4395C8.10988 43.8945 18.257 33.087 32.7395 23.1289C48.1742 12.5162 68.7061 2.75022 92.0539 2.75ZM92.5061 8.75C71.2638 8.75 52.5592 17.1769 38.4299 26.4053C25.1738 35.0634 15.8102 44.5145 11.9719 48.6797L11.2786 49.4404C9.74396 51.1431 9.88409 53.6886 11.5686 55.2207L12.3342 55.9102C16.5623 59.6863 26.7771 68.2858 40.3547 76.166C54.8085 84.5547 73.2795 92.25 92.5061 92.25C111.695 92.25 131.024 84.5822 146.432 76.2236C161.878 67.8442 173.614 58.6427 177.67 55.3164L177.839 55.1699C179.48 53.6756 179.654 51.1918 178.206 49.4893L178.056 49.3223C174.521 45.5778 164.346 35.4635 149.486 26.2744C134.632 17.0893 114.969 8.75002 92.5061 8.75Z" fill="#9F1E3A"/>
<path d="M92.0539 2.75V0.5H92.0539L92.0539 2.75ZM154.583 22.9971L155.811 21.1117L155.811 21.1117L154.583 22.9971ZM185.437 49.1494L187.144 47.6835L187.128 47.6649L187.111 47.6467L185.437 49.1494ZM185.579 49.3154L187.328 47.899L187.307 47.874L187.286 47.8495L185.579 49.3154ZM185.211 54.8721L186.719 56.5425L186.741 56.5225L186.762 56.502L185.211 54.8721ZM185.051 55.0166L186.519 56.7219L186.539 56.7047L186.558 56.687L185.051 55.0166ZM151.242 78.7529L152.357 80.7075V80.7075L151.242 78.7529ZM92.0539 97.25L92.0539 99.5H92.0539V97.25ZM34.8342 78.6904L33.6621 80.611L33.6621 80.611L34.8342 78.6904ZM4.48852 55.665L2.94153 57.2989L2.94928 57.3062L4.48852 55.665ZM3.69848 54.917L2.14428 56.544L2.1515 56.5508L3.69848 54.917ZM3.41333 49.2627L1.7134 47.7886L1.70485 47.7986L3.41333 49.2627ZM4.12719 48.4395L2.43496 46.9566L2.42729 46.9654L4.12719 48.4395ZM32.7395 23.1289L31.4647 21.2749L31.4647 21.2749L32.7395 23.1289ZM92.5061 8.75L92.5061 6.5H92.5061V8.75ZM38.4299 26.4053L37.1996 24.5215L37.1995 24.5215L38.4299 26.4053ZM11.9719 48.6797L10.3173 47.1549L10.309 47.1641L11.9719 48.6797ZM11.2786 49.4404L9.6156 47.9248L9.6072 47.9341L11.2786 49.4404ZM11.5686 55.2207L10.0547 56.8852L10.063 56.8927L11.5686 55.2207ZM12.3342 55.9102L10.8286 57.5822L10.8354 57.5883L12.3342 55.9102ZM40.3547 76.166L39.2253 78.112H39.2253L40.3547 76.166ZM92.5061 92.25V94.5H92.5061L92.5061 92.25ZM146.432 76.2236L147.505 78.2014V78.2014L146.432 76.2236ZM177.67 55.3164L179.097 57.0561L179.121 57.0366L179.144 57.0164L177.67 55.3164ZM177.839 55.1699L179.313 56.8699L179.334 56.852L179.354 56.8337L177.839 55.1699ZM178.206 49.4893L179.92 48.0315L179.9 48.0072L179.878 47.9835L178.206 49.4893ZM178.056 49.3223L179.728 47.8166L179.71 47.7969L179.692 47.7777L178.056 49.3223ZM149.486 26.2744L150.669 24.3607V24.3607L149.486 26.2744ZM92.0539 2.75V5C116.172 5 137.338 14.4507 153.355 24.8825L154.583 22.9971L155.811 21.1117C139.367 10.4016 117.346 0.5 92.0539 0.5V2.75ZM154.583 22.9971L153.355 24.8824C169.372 35.3139 180.24 46.727 183.762 50.6522L185.437 49.1494L187.111 47.6467C183.436 43.5513 172.272 31.8326 155.811 21.1117L154.583 22.9971ZM185.437 49.1494L183.73 50.6153L183.872 50.7814L185.579 49.3154L187.286 47.8495L187.144 47.6835L185.437 49.1494ZM185.579 49.3154L183.831 50.7319C184.448 51.4934 184.377 52.5601 183.66 53.2422L185.211 54.8721L186.762 56.502C189.152 54.2278 189.445 50.5122 187.328 47.899L185.579 49.3154ZM185.211 54.8721L183.704 53.2017L183.544 53.3462L185.051 55.0166L186.558 56.687L186.719 56.5425L185.211 54.8721ZM185.051 55.0166L183.583 53.3113C179.489 56.8357 166.86 67.2575 150.128 76.7984L151.242 78.7529L152.357 80.7075C169.433 70.9703 182.306 60.3486 186.519 56.7219L185.051 55.0166ZM151.242 78.7529L150.128 76.7984C133.396 86.3394 112.56 95 92.0539 95V97.25V99.5C113.714 99.5 135.366 90.3962 152.357 80.7075L151.242 78.7529ZM92.0539 97.25L92.054 95C71.5269 94.9998 51.6585 86.3223 36.0063 76.7699L34.8342 78.6904L33.6621 80.611C49.624 90.3525 70.334 99.4998 92.0539 99.5L92.0539 97.25ZM34.8342 78.6904L36.0064 76.7699C21.3338 67.8152 10.3637 58.0907 6.02776 54.0239L4.48852 55.665L2.94928 57.3062C7.41491 61.4946 18.6343 71.4395 33.6621 80.611L34.8342 78.6904ZM4.48852 55.665L6.0355 54.0312L5.24546 53.2832L3.69848 54.917L2.1515 56.5508L2.94154 57.2989L4.48852 55.665ZM3.69848 54.917L5.25267 53.29C4.51982 52.59 4.46342 51.4951 5.1218 50.7268L3.41333 49.2627L1.70485 47.7986C-0.519659 50.3944 -0.305906 54.2034 2.1443 56.544L3.69848 54.917ZM3.41333 49.2627L5.11323 50.7367L5.82709 49.9135L4.12719 48.4395L2.42729 46.9654L1.71342 47.7886L3.41333 49.2627ZM4.12719 48.4395L5.8194 49.9223C9.72976 45.46 19.7385 34.7989 34.0143 24.9829L32.7395 23.1289L31.4647 21.2749C16.7754 31.3752 6.48999 42.3291 2.43498 46.9566L4.12719 48.4395ZM32.7395 23.1289L34.0143 24.9829C49.2436 14.5115 69.331 5.00021 92.054 5L92.0539 2.75L92.0539 0.5C68.0812 0.500225 47.1048 10.5209 31.4647 21.2749L32.7395 23.1289ZM92.5061 8.75V6.5C70.6711 6.5 51.5379 15.1566 37.1996 24.5215L38.4299 26.4053L39.6603 28.2891C53.5805 19.1972 71.8565 11 92.5061 11V8.75ZM38.4299 26.4053L37.1995 24.5215C23.7361 33.315 14.2316 42.9073 10.3173 47.1549L11.9719 48.6797L13.6265 50.2044C17.3889 46.1216 26.6115 36.8118 39.6603 28.2891L38.4299 26.4053ZM11.9719 48.6797L10.309 47.1641L9.61563 47.9248L11.2786 49.4404L12.9415 50.9561L13.6349 50.1953L11.9719 48.6797ZM11.2786 49.4404L9.6072 47.9341C7.23765 50.5632 7.46016 54.5254 10.0547 56.8852L11.5686 55.2207L13.0825 53.5562C12.308 52.8518 12.2503 51.7231 12.9499 50.9468L11.2786 49.4404ZM11.5686 55.2207L10.063 56.8927L10.8286 57.5821L12.3342 55.9102L13.8399 54.2382L13.0742 53.5487L11.5686 55.2207ZM12.3342 55.9102L10.8354 57.5883C15.1304 61.4242 25.4707 70.1291 39.2253 78.112L40.3547 76.166L41.4842 74.22C28.0834 66.4425 17.9942 57.9484 13.833 54.232L12.3342 55.9102ZM40.3547 76.166L39.2253 78.112C53.837 86.5923 72.7129 94.5 92.5061 94.5V92.25V90C73.8462 90 55.78 82.5171 41.4841 74.22L40.3547 76.166ZM92.5061 92.25L92.5061 94.5C112.243 94.5 131.965 86.6317 147.505 78.2014L146.432 76.2236L145.359 74.2459C130.084 82.5326 111.147 90 92.5061 90V92.25ZM146.432 76.2236L147.505 78.2014C163.122 69.7292 174.98 60.4325 179.097 57.0561L177.67 55.3164L176.243 53.5767C172.249 56.853 160.634 65.9591 145.359 74.2459L146.432 76.2236ZM177.67 55.3164L179.144 57.0164L179.313 56.8699L177.839 55.1699L176.365 53.4699L176.196 53.6164L177.67 55.3164ZM177.839 55.1699L179.354 56.8337C181.885 54.5296 182.161 50.6659 179.92 48.0315L178.206 49.4893L176.492 50.9471C177.148 51.7176 177.076 52.8215 176.324 53.5062L177.839 55.1699ZM178.206 49.4893L179.878 47.9835L179.728 47.8166L178.056 49.3223L176.384 50.828L176.534 50.995L178.206 49.4893ZM178.056 49.3223L179.692 47.7777C176.077 43.9484 165.751 33.6872 150.669 24.3607L149.486 26.2744L148.302 28.1881C162.94 37.2397 172.965 47.2071 176.42 50.8669L178.056 49.3223ZM149.486 26.2744L150.669 24.3607C135.599 15.0422 115.526 6.50002 92.5061 6.5L92.5061 8.75V11C114.413 11 133.664 19.1364 148.302 28.1881L149.486 26.2744Z" fill="#9F1E3A"/>
<path d="M93 8C116.196 8 135 16.8043 135 40C135 63.196 116.196 82 93 82C69.804 82 51 63.196 51 40C51.0002 16.8043 69.8042 8 93 8ZM113.86 15.5752C104.524 13.0735 96.0081 14.5779 93.5146 23.8838C91.0213 33.1895 96.5689 42.7609 105.905 45.2627C115.242 47.7644 124.833 42.2492 127.326 32.9434C129.82 23.6375 123.197 18.0769 113.86 15.5752Z" fill="#9F1E3A"/>
</svg>
