<svg width="195" height="102" viewBox="0 0 195 102" fill="none" xmlns="http://www.w3.org/2000/svg">
<path d="M95.065 3L95.065 0.75L95.0649 0.75L95.065 3ZM159.337 23.7217L160.562 21.8339L160.562 21.8339L159.337 23.7217ZM191.001 50.4365L192.713 48.9755L192.693 48.9525L192.673 48.93L191.001 50.4365ZM191.144 50.6035L192.889 49.1837L192.873 49.1629L192.855 49.1425L191.144 50.6035ZM190.614 56.3203L192.078 58.029L192.078 58.029L190.614 56.3203ZM155.91 80.5693L157.02 82.5261L157.02 82.5261L155.91 80.5693ZM95.065 99.5L95.0649 101.75H95.065V99.5ZM36.2505 80.5068L35.0822 82.4298L35.0822 82.4298L36.2505 80.5068ZM5.09815 56.9805L3.55551 58.6184L3.56274 58.6252L5.09815 56.9805ZM4.29249 56.2217L2.74226 57.8524L2.74986 57.8596L4.29249 56.2217ZM4.00538 50.5488L2.30826 49.0715L2.30024 49.0808L4.00538 50.5488ZM4.7339 49.7119L3.04502 48.2252L3.0368 48.2346L4.7339 49.7119ZM34.103 23.8535L32.8321 21.9969L32.8321 21.9969L34.103 23.8535ZM95.0835 9.25L95.0835 7H95.0835V9.25ZM41.0073 26.9053L39.777 25.0215L39.777 25.0215L41.0073 26.9053ZM14.5493 49.1797L12.8947 47.6549L12.8864 47.664L14.5493 49.1797ZM13.856 49.9404L12.193 48.4248L12.1846 48.4341L13.856 49.9404ZM14.146 55.7207L12.6321 57.3852L12.6404 57.3927L14.146 55.7207ZM14.9116 56.4102L13.406 58.0822L13.4129 58.0883L14.9116 56.4102ZM42.9321 76.666L41.8027 78.612L41.8027 78.612L42.9321 76.666ZM95.0835 92.75L95.0835 95L95.0835 95L95.0835 92.75ZM149.009 76.7236L150.082 78.7014L150.082 78.7014L149.009 76.7236ZM180.248 55.8164L181.674 57.5561L181.698 57.5366L181.722 57.5164L180.248 55.8164ZM180.417 55.6699L181.89 57.3699L181.911 57.352L181.931 57.3336L180.417 55.6699ZM180.633 49.8223L182.269 48.2778L182.269 48.2777L180.633 49.8223ZM152.063 26.7744L153.246 24.8607L153.246 24.8607L152.063 26.7744ZM95.065 3V5.25C119.876 5.25 141.647 14.9321 158.113 25.6095L159.337 23.7217L160.562 21.8339C143.668 10.8792 121.046 0.75 95.065 0.75V3ZM159.337 23.7217L158.113 25.6095C174.579 36.2869 185.74 47.96 189.33 51.943L191.001 50.4365L192.673 48.93C188.929 44.7769 177.471 32.7993 160.562 21.8339L159.337 23.7217ZM191.001 50.4365L189.29 51.8975L189.433 52.0645L191.144 50.6035L192.855 49.1425L192.713 48.9755L191.001 50.4365ZM191.144 50.6035L189.399 52.0234C190.039 52.8106 189.944 53.9313 189.15 54.6117L190.614 56.3203L192.078 58.029C194.699 55.7834 195.092 51.8911 192.889 49.1837L191.144 50.6035ZM190.614 56.3203L189.15 54.6116C184.976 58.1875 172.003 68.8471 154.799 78.6126L155.91 80.5693L157.02 82.5261C174.568 72.5654 187.785 61.7068 192.078 58.029L190.614 56.3203ZM155.91 80.5693L154.799 78.6126C137.595 88.3781 116.161 97.25 95.065 97.25V99.5V101.75C117.309 101.75 139.557 92.4387 157.02 82.5261L155.91 80.5693ZM95.065 99.5L95.065 97.25C73.9488 97.2499 53.5111 88.3608 37.4188 78.5839L36.2505 80.5068L35.0822 82.4298C51.4845 92.3949 72.761 101.75 95.0649 101.75L95.065 99.5ZM36.2505 80.5068L37.4188 78.5839C22.3332 69.4186 11.0642 59.472 6.63357 55.3358L5.09815 56.9805L3.56274 58.6252C8.12325 62.8826 19.6417 73.0488 35.0822 82.4298L36.2505 80.5068ZM5.09815 56.9805L6.64078 55.3425L5.83512 54.5838L4.29249 56.2217L2.74986 57.8596L3.55553 58.6184L5.09815 56.9805ZM4.29249 56.2217L5.8427 54.5909C5.10482 53.8895 5.04808 52.7863 5.71052 52.0168L4.00538 50.5488L2.30024 49.0808C0.0613388 51.6814 0.278039 55.5099 2.74228 57.8524L4.29249 56.2217ZM4.00538 50.5488L5.70248 52.0261L6.43099 51.1892L4.7339 49.7119L3.0368 48.2346L2.30829 49.0715L4.00538 50.5488ZM4.7339 49.7119L6.42275 51.1986C10.4188 46.6592 20.6987 35.7562 35.374 25.7102L34.103 23.8535L32.8321 21.9969C17.7434 32.3259 7.18647 43.5207 3.04505 48.2252L4.7339 49.7119ZM34.103 23.8535L35.374 25.7102C51.0298 14.993 71.6903 5.25013 95.065 5.25L95.065 3L95.0649 0.75C70.4459 0.750142 48.8992 10.9982 32.8321 21.9969L34.103 23.8535ZM95.0835 9.25V7C73.2486 7 54.1153 15.6566 39.777 25.0215L41.0073 26.9053L42.2377 28.7891C56.1579 19.6973 74.434 11.5 95.0835 11.5V9.25ZM41.0073 26.9053L39.777 25.0215C26.3136 33.815 16.8091 43.4073 12.8947 47.6549L14.5493 49.1797L16.2039 50.7044C19.9664 46.6215 29.1891 37.3117 42.2377 28.7891L41.0073 26.9053ZM14.5493 49.1797L12.8864 47.664L12.193 48.4248L13.856 49.9404L15.5189 51.4561L16.2123 50.6953L14.5493 49.1797ZM13.856 49.9404L12.1846 48.4341C9.81505 51.0632 10.0376 55.0254 12.6321 57.3852L14.146 55.7207L15.6599 54.0562C14.8854 53.3518 14.8277 52.2231 15.5273 51.4468L13.856 49.9404ZM14.146 55.7207L12.6404 57.3927L13.406 58.0821L14.9116 56.4102L16.4173 54.7382L15.6516 54.0487L14.146 55.7207ZM14.9116 56.4102L13.4129 58.0883C17.7078 61.9242 28.0483 70.6292 41.8027 78.612L42.9321 76.666L44.0616 74.72C30.661 66.9425 20.5717 58.4485 16.4104 54.732L14.9116 56.4102ZM42.9321 76.666L41.8027 78.612C56.4144 87.0923 75.2904 95 95.0835 95V92.75V90.5C76.4237 90.5 58.3574 83.017 44.0616 74.72L42.9321 76.666ZM95.0835 92.75L95.0835 95C114.821 94.9999 134.542 87.1317 150.082 78.7014L149.009 76.7236L147.936 74.7459C132.661 83.0326 113.724 90.4999 95.0835 90.5L95.0835 92.75ZM149.009 76.7236L150.082 78.7014C165.699 70.2292 177.558 60.9325 181.674 57.5561L180.248 55.8164L178.821 54.0767C174.826 57.3529 163.212 66.4592 147.936 74.7459L149.009 76.7236ZM180.248 55.8164L181.722 57.5164L181.89 57.3699L180.417 55.6699L178.943 53.9699L178.774 54.1164L180.248 55.8164ZM180.417 55.6699L181.931 57.3336C184.548 54.9512 184.75 50.9059 182.269 48.2778L180.633 49.8223L178.997 51.3668C179.732 52.1454 179.677 53.3005 178.902 54.0062L180.417 55.6699ZM180.633 49.8223L182.269 48.2777C178.654 44.4484 168.329 34.1872 153.246 24.8607L152.063 26.7744L150.88 28.6881C165.517 37.7397 175.542 47.7071 178.997 51.3669L180.633 49.8223ZM152.063 26.7744L153.246 24.8607C138.177 15.5422 118.103 7.00008 95.0835 7L95.0835 9.25L95.0835 11.5C116.99 11.5001 136.242 19.6365 150.88 28.6881L152.063 26.7744Z" fill="#9F1E3A"/>
<mask id="path-2-inside-1_266_729" fill="white">
<path d="M95.5791 8.5C118.775 8.5 137.579 17.3043 137.579 40.5C137.579 63.696 118.775 82.5 95.5791 82.5C72.3831 82.5 53.5791 63.696 53.5791 40.5C53.5793 17.3043 72.3833 8.5 95.5791 8.5ZM115.963 19.3418C109.589 17.634 103.776 18.6611 102.074 25.0137C100.372 31.3661 104.159 37.9005 110.532 39.6084C116.906 41.3162 123.453 37.5508 125.155 31.1982C126.857 24.8457 122.336 21.0496 115.963 19.3418Z"/>
</mask>
<path d="M137.579 40.5H142.079V40.5L137.579 40.5ZM53.5791 40.5L49.0791 40.5V40.5H53.5791ZM115.963 19.3418L117.128 14.9951L117.128 14.9951L115.963 19.3418ZM102.074 25.0137L97.7276 23.849L97.7276 23.849L102.074 25.0137ZM110.532 39.6084L109.367 43.955L109.368 43.9551L110.532 39.6084ZM125.155 31.1982L129.502 32.3629V32.3629L125.155 31.1982ZM95.5791 8.5V13C106.723 13 116.207 15.1337 122.77 19.5382C129.067 23.7642 133.079 30.3307 133.079 40.5L137.579 40.5L142.079 40.5C142.079 27.4736 136.689 18.0402 127.785 12.065C119.147 6.26849 107.631 4 95.5791 4V8.5ZM137.579 40.5H133.079C133.079 61.2107 116.29 78 95.5791 78V82.5V87C121.26 87 142.079 66.1812 142.079 40.5H137.579ZM95.5791 82.5V78C74.8684 78 58.0791 61.2107 58.0791 40.5H53.5791H49.0791C49.0791 66.1812 69.8979 87 95.5791 87V82.5ZM53.5791 40.5L58.0791 40.5C58.0792 30.3307 62.0911 23.7642 68.3883 19.5382C74.9517 15.1337 84.4356 13 95.5791 13V8.5V4C83.5268 4 72.0108 6.26849 63.3732 12.065C54.4694 18.0402 49.0792 27.4736 49.0791 40.5L53.5791 40.5ZM115.963 19.3418L117.128 14.9951C113.504 14.0242 109.461 13.6561 105.818 14.8947C101.871 16.2368 98.95 19.2866 97.7276 23.849L102.074 25.0137L106.421 26.1784C106.901 24.3882 107.737 23.7482 108.715 23.4156C109.998 22.9794 112.048 22.9516 114.798 23.6885L115.963 19.3418ZM102.074 25.0137L97.7276 23.849C95.3786 32.6154 100.607 41.6075 109.367 43.955L110.532 39.6084L111.697 35.2618C107.711 34.1936 105.366 30.1169 106.421 26.1783L102.074 25.0137ZM110.532 39.6084L109.368 43.9551C118.128 46.3024 127.153 41.1297 129.502 32.3629L125.155 31.1982L120.809 30.0335C119.753 33.9718 115.684 36.3299 111.697 35.2617L110.532 39.6084ZM125.155 31.1982L129.502 32.3629C130.724 27.8004 129.72 23.6988 126.972 20.5628C124.437 17.6688 120.751 15.9661 117.128 14.9951L115.963 19.3418L114.798 23.6885C117.548 24.4253 119.31 25.4745 120.203 26.4936C120.884 27.2709 121.288 28.2435 120.809 30.0336L125.155 31.1982Z" fill="#9F1E3A" mask="url(#path-2-inside-1_266_729)"/>
</svg>
