<svg width="83" height="72" viewBox="0 0 83 72" fill="none" xmlns="http://www.w3.org/2000/svg">
<path fill-rule="evenodd" clip-rule="evenodd" d="M34.7119 8.2963L39.6434 13.031L37.6652 17.048L38.5056 18.9764L42.7946 20.2624L42.9051 27.0979L38.7023 28.6426L37.8863 30.7191L39.913 34.7118L35.1783 39.6433L31.1613 37.6651L29.2329 38.5055L27.9469 42.7945L21.1114 42.905L19.5668 38.7022L17.4902 37.8862L13.4975 39.9129L8.56605 35.1782L10.5442 31.1612L9.70386 29.2328L5.41481 27.9469L5.30428 21.1113L9.50711 19.5667L10.3231 17.4902L8.29639 13.4974L13.0311 8.56596L17.0481 10.5441L18.9765 9.70378L20.2625 5.41472L27.098 5.30419L28.6426 9.50702L30.7192 10.3231L34.7119 8.2963ZM21.5206 30.6802C24.9611 32.0322 28.8462 30.3392 30.1983 26.8987C31.5503 23.4582 29.8573 19.5731 26.4168 18.221C22.9763 16.869 19.0912 18.562 17.7391 22.0025C16.3871 25.443 18.0801 29.3281 21.5206 30.6802Z" fill="#587AA1"/>
<path fill-rule="evenodd" clip-rule="evenodd" d="M34.7125 8.29633L39.6439 13.031L37.6658 17.0481L38.5061 18.9764L42.7952 20.2624L42.9057 27.0979L38.7029 28.6426L37.8868 30.7191L39.9136 34.7119L35.1789 39.6433L31.1618 37.6652L29.2335 38.5055L27.9475 42.7945L21.112 42.9051L19.5673 38.7022L18.529 38.2942L21.521 30.6807C24.9615 32.0327 28.8466 30.3396 30.1986 26.8992C31.5506 23.4587 29.8576 19.5736 26.4172 18.2215L29.6815 9.91506L30.7197 10.3231L34.7125 8.29633ZM26.4172 18.2215C26.4172 18.2215 26.4171 18.2215 26.4171 18.2215C26.4171 18.2215 25.3199 21.0101 23.9679 24.4506C22.6159 27.8911 21.5209 30.6807 21.5209 30.6807C21.521 30.6807 21.521 30.6807 21.521 30.6807L26.4172 18.2215Z" fill="#587AA1"/>
<path d="M26.829 17.184C31.0332 18.8363 33.1631 23.4295 31.586 27.4432C30.0086 31.457 25.3211 33.372 21.1167 31.72C21.1167 31.72 21.3091 31.2309 21.636 30.3984C25.0764 31.7504 28.9115 30.1844 30.2023 26.9005C31.4929 23.6164 29.7502 19.8575 26.3097 18.5055C26.3097 18.5055 25.2624 21.168 23.9718 24.4521L23.9721 24.4512C25.5495 20.4374 26.829 17.184 26.829 17.184Z" fill="#81A6C7"/>
<path d="M26.3074 18.5045C22.8675 17.1542 19.0342 18.7202 17.7439 22.0035C16.4536 25.2869 18.1955 29.0428 21.6344 30.3957L21.1147 31.7181C16.9099 30.0655 14.7796 25.4723 16.3569 21.4585C17.9342 17.4447 22.6218 15.5307 26.8267 17.183L26.3074 18.5045Z" fill="#81A6C7"/>
<mask id="mask0_158_5779" style="mask-type:alpha" maskUnits="userSpaceOnUse" x="22" y="12" width="47" height="46">
<rect x="23.4893" y="12.5" width="45" height="45" rx="10.5" fill="url(#paint0_linear_158_5779)" stroke="black"/>
</mask>
<g mask="url(#mask0_158_5779)">
<rect x="22.9893" y="12" width="46" height="46" rx="11" fill="url(#paint1_linear_158_5779)"/>
<path d="M39.5896 24.6074C39.6349 24.5844 44.8559 21.9495 44.8562 28.0752C44.8562 33.8679 39.6416 31.3456 39.5896 31.3203V38.0322H46.6521C46.6292 37.9923 43.6481 32.7747 50.1228 32.7744C56.623 32.7744 54.0486 38.0322 54.0486 38.0322H58.0837C56.1554 41.4101 53.3161 44.2773 53.6101 47.0459C53.7122 48.647 54.3333 50.8353 54.6599 51.8965C54.7574 52.2134 54.531 52.5409 54.1999 52.5576L41.5603 53.1973C41.2747 53.2117 41.0314 52.9844 41.0007 52.7002C40.9035 51.7938 40.5292 49.9772 39.0866 49.4365C37.1379 48.7067 35.2195 49.4365 34.154 49.4365C33.0886 49.4365 31.769 48.627 31.6589 47.8916C31.5489 47.1564 32.2467 46.2376 32.0632 45.833C31.8792 45.4285 30.8823 45.3487 30.8864 44.8027C30.8913 44.2569 32.1368 43.8187 31.9529 43.6631C31.7683 43.5074 30.5519 43.2164 30.5193 42.7441C30.4867 42.2717 31.2178 42.0456 31.2546 41.6045C31.2912 41.1633 29.9936 41.1339 29.4157 40.5381C29.0636 40.175 28.7859 39.7967 29.2273 39.2451C29.6694 38.6931 31.6921 37.0515 32.321 34.8389C32.4096 34.5272 32.4539 34.3493 32.5046 34.0293C32.7386 32.5513 31.9485 31.7384 31.9157 30.2422C31.8975 29.4088 31.8935 28.9333 32.0261 28.1104C32.4886 25.2415 33.764 23.7327 35.8874 21.749C37.1078 20.609 38.3215 19.7551 39.5896 19.1543V24.6074ZM60.657 24.6074C60.657 24.6074 65.135 21.9227 65.2517 27.4043C65.3755 33.2217 60.657 30.5371 60.657 30.5371V38.0322H58.0837C59.0492 36.3409 59.7868 34.5221 59.7868 32.5225C59.0459 25.1112 54.6051 19.0914 47.2126 18.1826C44.268 17.8207 41.8424 18.087 39.5896 19.1543V17H60.657V24.6074Z" fill="#9F1E3A"/>
</g>
<path fill-rule="evenodd" clip-rule="evenodd" d="M73.4244 44.2245L76.6743 47.5912L75.2168 50.2874L75.7415 51.6282L78.6417 52.6193L78.5396 57.2976L75.6247 58.2449L75.0126 59.644L76.295 62.4276L72.9283 65.6776L70.2321 64.2201L68.8913 64.7447L67.9002 67.645L63.2219 67.5428L62.2747 64.628L60.8756 64.0158L58.0919 65.2983L54.8419 61.9316L56.2994 59.2354L55.7748 57.8946L52.8745 56.9035L52.9767 52.2252L55.8915 51.2779L56.5037 49.8788L55.2212 47.0951L58.5879 43.8452L61.2841 45.3027L62.6249 44.778L63.6161 41.8778L68.2943 41.9799L69.2416 44.8948L70.6407 45.5069L73.4244 44.2245ZM63.8201 59.1918C66.1382 60.2061 68.8396 59.1491 69.8539 56.831C70.8681 54.5129 69.8111 51.8115 67.493 50.7972C65.1749 49.783 62.4735 50.84 61.4593 53.1581C60.445 55.4762 61.502 58.1776 63.8201 59.1918Z" fill="#6C90B8"/>
<path fill-rule="evenodd" clip-rule="evenodd" d="M73.4238 44.2234L76.6737 47.5902L75.2162 50.2863L75.7409 51.6272L78.6411 52.6183L78.539 57.2966L75.6241 58.2438L75.012 59.6429L76.2944 62.4266L72.9277 65.6765L70.2315 64.2191L68.8907 64.7437L67.8996 67.6439L63.2213 67.5418L62.2741 64.6269L61.5745 64.3209L63.8188 59.1914C66.1368 60.2052 68.8378 59.1482 69.852 56.8302C70.8662 54.5123 69.8094 51.8112 67.4917 50.7967L69.9405 45.1998L70.6401 45.5059L73.4238 44.2234ZM67.4917 50.7967C67.4915 50.7967 67.4913 50.7966 67.4911 50.7965C67.4911 50.7965 66.6682 52.6754 65.6539 54.9935C64.6397 57.3116 63.8182 59.1911 63.8182 59.1911C63.8184 59.1912 63.8186 59.1913 63.8188 59.1914L67.4917 50.7967Z" fill="#6C90B8"/>
<path d="M67.8007 50.098C70.6335 51.3375 71.9707 54.5343 70.7875 57.2388C69.6042 59.9432 66.3488 61.1306 63.5159 59.8912L63.9054 59.001C66.2235 60.0152 68.888 59.044 69.8561 56.8313C70.8241 54.6186 69.7292 52.0025 67.4112 50.9882L65.6574 54.9942C66.834 52.3051 67.7899 50.1227 67.8007 50.098Z" fill="#97BEDB"/>
<path d="M67.4091 50.9882C65.0911 49.9742 62.4274 50.9456 61.4593 53.1583C60.5215 55.3019 61.5192 57.8236 63.6901 58.9012L63.9033 59.0009L63.5138 59.8911C60.6807 58.6515 59.3431 55.4544 60.5262 52.75C61.7094 50.0455 64.9658 48.8575 67.799 50.0971C67.799 50.0971 67.6571 50.4215 67.4091 50.9882Z" fill="#97BEDB"/>
<defs>
<linearGradient id="paint0_linear_158_5779" x1="46.4893" y1="6.49951" x2="46.4893" y2="63.4995" gradientUnits="userSpaceOnUse">
<stop stop-color="#BBD67A"/>
<stop offset="0.234416" stop-color="#95CE70"/>
<stop offset="0.513974" stop-color="#467276"/>
<stop offset="0.698144" stop-color="#234779"/>
<stop offset="1" stop-color="#1D427E"/>
</linearGradient>
<linearGradient id="paint1_linear_158_5779" x1="46.4893" y1="6.49951" x2="46.4893" y2="63.4995" gradientUnits="userSpaceOnUse">
<stop stop-color="white"/>
</linearGradient>
</defs>
</svg>
