<svg width="166" height="96" viewBox="0 0 166 96" fill="none" xmlns="http://www.w3.org/2000/svg">
<path d="M44.5 61C40.5 58 27 52.5 27 52.5L48.5 21.5C48.5 21.5 57.3898 27.4449 63.5 30.5C65.5 31.5 69.25 27.5 76 29C80.5 30 86 36.5 86 36.5L113.5 70C113.5 70 116.5 74.5 114.5 77C111.408 80.8651 107.5 77 107.5 77L97.5 66.5L108.5 80C108.5 80 111 84 108 86.5C105.345 88.7123 102 86.5 102 86.5L90 72.5L99.5 84.5C99.5 84.5 101.484 88 99 90.5C96.0195 93.5 91.5 90 91.5 90L81 78L88.5 87.5C88.5 87.5 90.5 91 88 93.5C85.1496 96.3504 81 93.5 81 93.5C81 93.5 58 74.5 47.5 66.5C45.5539 65.0172 46.5307 62.523 44.5 61Z" fill="#FCD4C5"/>
<path d="M85.9995 87.9998C85.9995 87.9998 81.9997 81.9999 80.9991 79C80.755 78.2684 80.9991 78 80.9991 78L88.5 87C88.5 87 90 89 89 92C88.7766 92.6701 85.9995 87.9998 85.9995 87.9998Z" fill="#F9C9B2"/>
<path d="M96.1092 83.9998C96.1092 83.9998 92.1094 77.9999 91.1087 75C90.8647 74.2684 90 72.5 90 72.5L99.5 83.9998C99.5 83.9998 101 86.5 100 89C99.7377 89.6558 96.1092 83.9998 96.1092 83.9998Z" fill="#F9C9B2"/>
<path d="M105 78.5C105 78.5 101 73 99.5 70.5C99.1082 69.8469 97.5 66.5 97.5 66.5L108.5 79C108.5 79 110 80.5 109.5 84C109.4 84.6992 105 78.5 105 78.5Z" fill="#F9C9B2"/>
<path d="M99.9999 29C104 27 115.5 21 115.5 21L133.5 52L116.5 61C116.5 61 115.701 63.0446 115.5 64C115.015 66.3008 111.5 68 111.5 68L97 50C97 50 89.8644 50.2829 86.5 47.5C84.0739 45.4932 82.4996 41 82.4996 41L68.0003 49.5C68.0003 49.5 64.0004 51.0154 61.9998 48.5C59.2162 45 63.4999 41.5 63.4999 41.5C63.4999 41.5 76.0001 33 83.9999 29.5C88.7057 27.4411 96.7795 30.6101 99.9999 29Z" fill="#F5C0A6"/>
<path d="M48.464 68.7612C48.464 68.7612 42.0379 74.5605 46.2916 78.3637C51.0738 82.6395 56.3423 74.7152 56.3423 74.7152C56.3423 74.7152 61.6426 67.2115 57.4969 64.7223C53.8694 62.5444 48.464 68.7612 48.464 68.7612Z" fill="#F5C0A6"/>
<path d="M54.5189 74.1513C52.5166 77.1549 47.7547 79.415 48.1076 79.4935C52.9161 80.5623 56.3419 74.7154 56.3419 74.7154C56.3419 74.7154 61.6417 67.2125 57.4965 64.7225C56.978 64.411 58.7931 67.7401 54.5189 74.1513Z" fill="#EBB69D"/>
<path d="M54.897 75.4006C54.897 75.4006 47.8918 82.0037 52.5598 86.3684C57.8079 91.2756 63.5383 82.2386 63.5383 82.2386C63.5383 82.2386 69.3051 73.6825 64.7605 70.8203C60.7841 68.3159 54.897 75.4006 54.897 75.4006Z" fill="#F5C0A6"/>
<path d="M61.8168 81.6509C59.587 85.0583 54.2764 87.6171 54.6703 87.7068C60.0383 88.9282 63.8522 82.2942 63.8522 82.2942C63.8522 82.2942 69.7547 73.783 65.1246 70.9487C64.5455 70.5943 66.5765 74.3775 61.8168 81.6509Z" fill="#EBB69D"/>
<path d="M63.7908 81.2203C63.7908 81.2203 58.231 87.1313 62.2096 90.687C66.6827 94.6845 71.847 86.9394 71.847 86.9394C71.847 86.9394 76.7952 80.1664 72.9175 77.8393C69.0399 75.5122 63.7908 81.2203 63.7908 81.2203Z" fill="#F5C0A6"/>
<path d="M70.1885 86.6266C68.3653 89.3861 64.0289 91.6852 64.3505 91.7575C68.7339 92.7429 71.8504 87.1462 71.8504 87.1462C71.8504 87.1462 76.6761 80.2533 72.8964 77.962C72.4237 77.6754 74.0801 80.7365 70.1885 86.6266Z" fill="#EBB69D"/>
<path d="M71.6986 85.9985C71.6986 85.9985 67.3311 90.6311 71.152 94.1856C74.973 97.7402 78.4057 91.4564 78.4057 91.4564C78.4057 91.4564 82.07 85.9986 78.7938 83.8154C75.5175 81.6322 71.6986 85.9985 71.6986 85.9985Z" fill="#F5C0A6"/>
<path d="M76.9064 91.4075C75.4558 93.7887 73.2581 95.2609 73.3337 95.2763C76.061 95.8302 78.2445 91.8662 78.2445 91.8662C78.2445 91.8662 82.0863 85.9195 79.0374 83.9149C78.6561 83.6641 80.0029 86.3246 76.9064 91.4075Z" fill="#EBB69D"/>
<rect x="49.249" y="15.293" width="14" height="45.8771" transform="rotate(29.5041 49.249 15.293)" fill="#E6F5FA"/>
<rect x="22.5938" width="30.8393" height="45.8771" transform="rotate(29.5041 22.5938 0)" fill="#6A7F91"/>
<rect x="49.249" y="15.293" width="14" height="4.34094" transform="rotate(29.5041 49.249 15.293)" fill="#F5FDFF"/>
<rect x="22.6123" y="0.0107422" width="30.8171" height="4.34094" transform="rotate(29.5041 22.6123 0.0107422)" fill="#788D9E"/>
<rect width="14" height="45.8771" transform="matrix(-0.870321 0.492486 0.492486 0.870321 116.185 15.293)" fill="#E6F5FA"/>
<rect width="30.8393" height="45.8771" transform="matrix(-0.870321 0.492486 0.492486 0.870321 142.84 0)" fill="#6A7F91"/>
<rect width="14" height="4.34094" transform="matrix(-0.870321 0.492486 0.492486 0.870321 116.185 15.293)" fill="#F5FDFF"/>
<rect width="30.8171" height="4.34094" transform="matrix(-0.870321 0.492486 0.492486 0.870321 142.821 0.0107422)" fill="#788D9E"/>
</svg>
