<svg width="125" height="125" viewBox="0 0 125 125" fill="none" xmlns="http://www.w3.org/2000/svg">
<mask id="mask0_1_3201" style="mask-type:alpha" maskUnits="userSpaceOnUse" x="62" y="0" width="63" height="125">
<rect width="62.5" height="125" transform="matrix(-1 0 0 1 125 0)" fill="#D9D9D9"/>
</mask>
<g mask="url(#mask0_1_3201)">
<path fill-rule="evenodd" clip-rule="evenodd" d="M62.5 0C27.9825 0 3.69549e-06 27.9822 3.69549e-06 62.5C3.69549e-06 97.0175 27.9825 125 62.5 125C97.0178 125 125 97.0175 125 62.5C125 27.9822 97.0178 0 62.5 0ZM45 74.1037C49.5162 78.5306 55.6844 81.25 62.5 81.25C69.3156 81.25 75.4839 78.5306 79.9998 74.1037C82.4646 71.6875 86.4217 71.7263 88.8381 74.1913C91.2545 76.6563 91.2152 80.6137 88.7502 83.03C81.9926 89.6544 72.7181 93.75 62.5 93.75C52.2819 93.75 43.0075 89.6544 36.25 83.03C33.785 80.6137 33.7456 76.6563 36.1619 74.1913C38.5781 71.7263 42.5356 71.6875 45 74.1037ZM84.375 37.5C89.5527 37.5 93.75 41.6973 93.75 46.875C93.75 52.0525 89.5527 56.25 84.375 56.25C79.1973 56.25 75 52.0525 75 46.875C75 41.6973 79.1973 37.5 84.375 37.5ZM40.625 37.5C45.8025 37.5 50 41.6973 50 46.875C50 52.0525 45.8025 56.25 40.625 56.25C35.4475 56.25 31.25 52.0525 31.25 46.875C31.25 41.6973 35.4475 37.5 40.625 37.5Z" fill="#F9F7F4"/>
</g>
<mask id="path-3-inside-1_1_3201" fill="white">
<path fill-rule="evenodd" clip-rule="evenodd" d="M62.5 0C27.9825 0 3.69549e-06 27.9822 3.69549e-06 62.5C3.69549e-06 97.0175 27.9825 125 62.5 125C97.0178 125 125 97.0175 125 62.5C125 27.9822 97.0178 0 62.5 0ZM45 74.1037C49.5162 78.5306 55.6844 81.25 62.5 81.25C69.3156 81.25 75.4839 78.5306 79.9998 74.1037C82.4646 71.6875 86.4217 71.7263 88.8381 74.1913C91.2545 76.6563 91.2152 80.6137 88.7502 83.03C81.9926 89.6544 72.7181 93.75 62.5 93.75C52.2819 93.75 43.0075 89.6544 36.25 83.03C33.785 80.6137 33.7456 76.6563 36.1619 74.1913C38.5781 71.7263 42.5356 71.6875 45 74.1037ZM84.375 37.5C89.5527 37.5 93.75 41.6973 93.75 46.875C93.75 52.0525 89.5527 56.25 84.375 56.25C79.1973 56.25 75 52.0525 75 46.875C75 41.6973 79.1973 37.5 84.375 37.5ZM40.625 37.5C45.8025 37.5 50 41.6973 50 46.875C50 52.0525 45.8025 56.25 40.625 56.25C35.4475 56.25 31.25 52.0525 31.25 46.875C31.25 41.6973 35.4475 37.5 40.625 37.5Z"/>
</mask>
<path fill-rule="evenodd" clip-rule="evenodd" d="M62.5 0C27.9825 0 3.69549e-06 27.9822 3.69549e-06 62.5C3.69549e-06 97.0175 27.9825 125 62.5 125C97.0178 125 125 97.0175 125 62.5C125 27.9822 97.0178 0 62.5 0ZM45 74.1037C49.5162 78.5306 55.6844 81.25 62.5 81.25C69.3156 81.25 75.4839 78.5306 79.9998 74.1037C82.4646 71.6875 86.4217 71.7263 88.8381 74.1913C91.2545 76.6563 91.2152 80.6137 88.7502 83.03C81.9926 89.6544 72.7181 93.75 62.5 93.75C52.2819 93.75 43.0075 89.6544 36.25 83.03C33.785 80.6137 33.7456 76.6563 36.1619 74.1913C38.5781 71.7263 42.5356 71.6875 45 74.1037ZM84.375 37.5C89.5527 37.5 93.75 41.6973 93.75 46.875C93.75 52.0525 89.5527 56.25 84.375 56.25C79.1973 56.25 75 52.0525 75 46.875C75 41.6973 79.1973 37.5 84.375 37.5ZM40.625 37.5C45.8025 37.5 50 41.6973 50 46.875C50 52.0525 45.8025 56.25 40.625 56.25C35.4475 56.25 31.25 52.0525 31.25 46.875C31.25 41.6973 35.4475 37.5 40.625 37.5Z" stroke="#F9F7F4" stroke-width="9" stroke-dasharray="9 9" mask="url(#path-3-inside-1_1_3201)"/>
</svg>
