<svg width="135" height="135" viewBox="0 0 135 135" fill="none" xmlns="http://www.w3.org/2000/svg">
<mask id="path-1-inside-1_1_3247" fill="white">
<path fill-rule="evenodd" clip-rule="evenodd" d="M67.2166 0C30.094 0 -0.000366211 30.094 -0.000366211 67.217C-0.000366211 104.34 30.094 134.434 67.2166 134.434C104.34 134.434 134.434 104.34 134.434 67.217C134.434 30.094 104.34 0 67.2166 0ZM48.3959 79.6965C53.253 84.4575 59.8866 87.3821 67.2166 87.3821C74.5466 87.3821 81.1805 84.4575 86.0371 79.6965C88.688 77.0979 92.9438 77.1395 95.5425 79.7906C98.1413 82.4416 98.099 86.6978 95.448 89.2964C88.1804 96.4207 78.2059 100.825 67.2166 100.825C56.2273 100.825 46.253 96.4207 38.9855 89.2964C36.3344 86.6978 36.2921 82.4416 38.8907 79.7906C41.4893 77.1395 45.7455 77.0979 48.3959 79.6965ZM90.7426 40.3302C96.311 40.3302 100.825 44.8443 100.825 50.4127C100.825 55.981 96.311 60.4953 90.7426 60.4953C85.1741 60.4953 80.66 55.981 80.66 50.4127C80.66 44.8443 85.1741 40.3302 90.7426 40.3302ZM43.6907 40.3302C49.2589 40.3302 53.7732 44.8443 53.7732 50.4127C53.7732 55.981 49.2589 60.4953 43.6907 60.4953C38.1224 60.4953 33.6081 55.981 33.6081 50.4127C33.6081 44.8443 38.1224 40.3302 43.6907 40.3302Z"/>
</mask>
<path fill-rule="evenodd" clip-rule="evenodd" d="M67.2166 0C30.094 0 -0.000366211 30.094 -0.000366211 67.217C-0.000366211 104.34 30.094 134.434 67.2166 134.434C104.34 134.434 134.434 104.34 134.434 67.217C134.434 30.094 104.34 0 67.2166 0ZM48.3959 79.6965C53.253 84.4575 59.8866 87.3821 67.2166 87.3821C74.5466 87.3821 81.1805 84.4575 86.0371 79.6965C88.688 77.0979 92.9438 77.1395 95.5425 79.7906C98.1413 82.4416 98.099 86.6978 95.448 89.2964C88.1804 96.4207 78.2059 100.825 67.2166 100.825C56.2273 100.825 46.253 96.4207 38.9855 89.2964C36.3344 86.6978 36.2921 82.4416 38.8907 79.7906C41.4893 77.1395 45.7455 77.0979 48.3959 79.6965ZM90.7426 40.3302C96.311 40.3302 100.825 44.8443 100.825 50.4127C100.825 55.981 96.311 60.4953 90.7426 60.4953C85.1741 60.4953 80.66 55.981 80.66 50.4127C80.66 44.8443 85.1741 40.3302 90.7426 40.3302ZM43.6907 40.3302C49.2589 40.3302 53.7732 44.8443 53.7732 50.4127C53.7732 55.981 49.2589 60.4953 43.6907 60.4953C38.1224 60.4953 33.6081 55.981 33.6081 50.4127C33.6081 44.8443 38.1224 40.3302 43.6907 40.3302Z" stroke="#9F1E3A" stroke-width="9" stroke-dasharray="9 9" mask="url(#path-1-inside-1_1_3247)"/>
<mask id="mask0_1_3247" style="mask-type:alpha" maskUnits="userSpaceOnUse" x="68" y="0" width="66" height="134">
<rect width="66" height="134" transform="matrix(-1 0 0 1 134 0)" fill="#D9D9D9"/>
</mask>
<g mask="url(#mask0_1_3247)">
<path fill-rule="evenodd" clip-rule="evenodd" d="M67.4336 0C30.4308 0 0.433594 30.0932 0.433594 67.215C0.433594 104.336 30.4308 134.43 67.4336 134.43C104.437 134.43 134.434 104.336 134.434 67.215C134.434 30.0932 104.437 0 67.4336 0ZM48.6736 79.6941C53.515 84.455 60.1272 87.3795 67.4336 87.3795C74.7399 87.3795 81.3524 84.455 86.1933 79.6941C88.8357 77.0956 93.0777 77.1373 95.6681 79.7882C98.2584 82.4392 98.2163 86.6952 95.5739 89.2938C88.3297 96.4179 78.3874 100.822 67.4336 100.822C56.4798 100.822 46.5376 96.4179 39.2936 89.2938C36.6511 86.6952 36.6089 82.4392 39.1991 79.7882C41.7893 77.1373 46.0318 77.0956 48.6736 79.6941ZM90.8836 40.329C96.4341 40.329 100.934 44.843 100.934 50.4112C100.934 55.9793 96.4341 60.4935 90.8836 60.4935C85.3331 60.4935 80.8336 55.9793 80.8336 50.4112C80.8336 44.843 85.3331 40.329 90.8836 40.329ZM43.9836 40.329C49.5339 40.329 54.0336 44.843 54.0336 50.4112C54.0336 55.9793 49.5339 60.4935 43.9836 60.4935C38.4333 60.4935 33.9336 55.9793 33.9336 50.4112C33.9336 44.843 38.4333 40.329 43.9836 40.329Z" fill="#9F1E3A"/>
</g>
</svg>
