<svg width="88" height="101" viewBox="0 0 88 101" fill="none" xmlns="http://www.w3.org/2000/svg">
<path d="M73 44C73 64.5 58.5 67 56 77C48.361 77 51.5759 77 44 77C36.4241 77 37 77 33 77C31.5 67 15 63.5 15 44C15 27.9837 27.9837 15 44 15C60.0163 15 73 27.9837 73 44Z" fill="#FFD15C"/>
<path d="M50 96.5C50 98.7091 47.5 101 44 101C40 101 38 98.7091 38 96.5C38 94.2909 41.7909 93 44 93C46.2091 93 50 94.2909 50 96.5Z" fill="#304558"/>
<path d="M32.999 77H55.999C55.999 77 55.999 84.5 55.999 93C55.999 96.7498 50.2497 96.4998 44.5 96.5C38.7497 96.5002 32.999 96.7503 32.999 92C32.999 83 32.999 77 32.999 77Z" fill="#344A5E"/>
<path d="M32.9231 80H56C56 80 58 80 58 82.5C58 85 56 85 56 85H32.9231C32.9231 85 31 85 31 82.5C31 80 32.9231 80 32.9231 80Z" fill="#41596A"/>
<path d="M32.9231 87H56C56 87 58 87 58 89.5C58 92 56 92 56 92H32.9231C32.9231 92 31 92 31 89.5C31 87 32.9231 87 32.9231 87Z" fill="#41596A"/>
<path d="M41.5 77.0161L33 44.5161C33 44.5161 35.104 45.784 36.5 45.5161C37.9977 45.2286 37.9891 43.223 39.5 43.0161C41.3251 42.7661 41.6579 45.5161 43.5 45.5161C45.3421 45.5161 45.6749 42.7661 47.5 43.0161C49.0109 43.223 49.0023 45.2286 50.5 45.5161C51.896 45.784 54 44.5161 54 44.5161L46 77.0161" stroke="white" stroke-width="1.5"/>
<path d="M79 42H86C86 42 88 42 88 44C88 46 86 46 86 46H79C79 46 77 46 77 44C77 42 79 42 79 42Z" fill="#FFD15C"/>
<path d="M2 42H9C9 42 11 42 11 44C11 46 9 46 9 46H2C2 46 0 46 0 44C0 42 2 42 2 42Z" fill="#FFD15C"/>
<path d="M16.2598 12.4317L21.1477 17.4425C21.1477 17.4425 22.5443 18.8742 21.1126 20.2707C19.681 21.6672 18.2844 20.2356 18.2844 20.2356L13.3965 15.2248C13.3965 15.2248 12 13.7931 13.4316 12.3965C14.8633 11 16.2598 12.4317 16.2598 12.4317Z" fill="#FFD15C"/>
<path d="M70.2598 67.4317L75.1477 72.4425C75.1477 72.4425 76.5443 73.8742 75.1126 75.2707C73.681 76.6672 72.2844 75.2356 72.2844 75.2356L67.3965 70.2248C67.3965 70.2248 66 68.7931 67.4316 67.3965C68.8633 66 70.2598 67.4317 70.2598 67.4317Z" fill="#FFD15C"/>
<path d="M75.2353 15.2598L70.2245 20.1477C70.2245 20.1477 68.7928 21.5443 67.3963 20.1126C65.9997 18.681 67.4314 17.2844 67.4314 17.2844L72.4422 12.3965C72.4422 12.3965 73.8739 11 75.2704 12.4316C76.667 13.8633 75.2353 15.2598 75.2353 15.2598Z" fill="#FFD15C"/>
<path d="M21.2353 70.2598L16.2245 75.1477C16.2245 75.1477 14.7928 76.5443 13.3963 75.1126C11.9997 73.681 13.4314 72.2844 13.4314 72.2844L18.4422 67.3965C18.4422 67.3965 19.8739 66 21.2704 67.4316C22.667 68.8633 21.2353 70.2598 21.2353 70.2598Z" fill="#FFD15C"/>
<path d="M46 2V9C46 9 46 11 44 11C42 11 42 9 42 9V2C42 2 42 0 44 0C46 0 46 2 46 2Z" fill="#FFD15C"/>
</svg>
