<svg width="153" height="132" viewBox="0 0 153 132" fill="none" xmlns="http://www.w3.org/2000/svg">
<path fill-rule="evenodd" clip-rule="evenodd" d="M64.0635 15.3116L73.1649 24.0499L69.514 31.4637L71.065 35.0227L78.9808 37.3961L79.1848 50.0116L71.4281 52.8624L69.922 56.6949L73.6626 64.0638L64.9243 73.1653L57.5104 69.5144L53.9515 71.0653L51.5781 78.9811L38.9625 79.1851L36.1117 71.4284L32.2793 69.9224L24.9103 73.6629L15.8089 64.9246L19.4597 57.5108L17.9088 53.9518L9.993 51.5784L9.78901 38.9629L17.5457 36.1121L19.0518 32.2797L15.3112 24.9107L24.0495 15.8092L31.4633 19.4601L35.0223 17.9092L37.3957 9.99336L50.0113 9.78937L52.8621 17.5461L56.6945 19.0521L64.0635 15.3116ZM39.7178 56.623C46.0676 59.1184 53.2379 55.9937 55.7332 49.644C58.2286 43.2942 55.1039 36.1239 48.7542 33.6286C42.4044 31.1332 35.2341 34.2579 32.7388 40.6076C30.2434 46.9574 33.3681 54.1277 39.7178 56.623Z" fill="#587AA1"/>
<path fill-rule="evenodd" clip-rule="evenodd" d="M64.0642 15.3122L73.1656 24.0505L69.5148 31.4643L71.0657 35.0233L78.9815 37.3967L79.1855 50.0122L71.4288 52.863L69.9227 56.6954L73.6633 64.0644L64.925 73.1658L57.5112 69.515L53.9522 71.0659L51.5788 78.9817L38.9632 79.1857L36.1124 71.429L34.1962 70.676L39.8684 56.2422C39.7705 56.4915 39.7184 56.6243 39.7184 56.6243C46.0682 59.1196 53.2385 55.995 55.7338 49.6452C58.2291 43.2955 55.1045 36.1251 48.7547 33.6298C48.7547 33.6298 48.7025 33.7626 48.6045 34.0118L54.779 18.2997L56.6952 19.0527L64.0642 15.3122ZM48.6045 34.0118C48.0921 35.3141 46.329 39.7963 44.2345 45.1262C42.1399 50.4561 40.3798 54.9395 39.8684 56.2422L48.6045 34.0118Z" fill="#587AA1"/>
<path d="M44.2433 45.1278L44.2424 45.1274C47.1457 37.7395 49.5027 31.7471 49.5155 31.7146C57.2753 34.764 61.2061 43.2417 58.2949 50.6497C55.3836 58.0576 46.7327 61.591 38.973 58.5417C38.973 58.5417 39.328 57.6394 39.9313 56.1031C46.2809 58.5983 53.3594 55.7082 55.7415 49.6473C58.1234 43.5862 54.9066 36.6494 48.5568 34.1541C48.5458 34.1822 46.6183 39.0843 44.2433 45.1278Z" fill="#81A6C7"/>
<path d="M48.5535 34.1509C42.2049 31.6587 35.1289 34.5496 32.7476 40.6094C30.3666 46.669 33.5817 53.6023 39.9284 56.099L38.969 58.5403C31.2083 55.4905 27.2767 47.0124 30.1877 39.6045C33.099 32.1964 41.7507 28.6634 49.5115 31.7132L48.5535 34.1509Z" fill="#81A6C7"/>
<mask id="mask0_158_5826" style="mask-type:alpha" maskUnits="userSpaceOnUse" x="42" y="22" width="86" height="86">
<rect x="42.9297" y="22.6475" width="83.8972" height="83.8972" rx="10.5" fill="url(#paint0_linear_158_5826)" stroke="black"/>
</mask>
<g mask="url(#mask0_158_5826)">
<rect x="42.4297" y="22.1475" width="84.8972" height="84.8972" rx="11" fill="url(#paint1_linear_158_5826)"/>
<path d="M73.0696 45.4146C73.0696 45.4146 82.7903 40.46 82.7903 51.8159C82.7901 62.5601 73.0696 57.8032 73.0696 57.8032V70.1919H86.1057C86.1057 70.1919 80.5146 60.4879 92.511 60.4878C104.508 60.4878 99.7561 70.1919 99.7561 70.1919H107.201C103.642 76.426 98.4027 81.718 98.9455 86.8276C99.1534 90.0854 100.525 94.6605 101.049 96.313C101.149 96.6289 100.924 96.9554 100.593 96.9722L76.2619 98.2017C75.9766 98.2158 75.7346 97.9886 75.7141 97.7036C75.6122 96.2721 75.0659 92.3346 72.1409 91.2388C68.5442 89.8918 65.0037 91.2388 63.0373 91.2388C61.071 91.2385 58.6361 89.7453 58.4328 88.3882C58.2297 87.0311 59.5181 85.335 59.1789 84.5884C58.8393 83.8419 56.9993 83.6957 57.0071 82.688C57.0149 81.6805 59.3141 80.8719 58.9758 80.5845C58.6362 80.2973 56.3901 79.7599 56.3293 78.8882C56.2692 78.0162 57.6182 77.598 57.6858 76.7837C57.7525 75.9698 55.3595 75.9153 54.2932 74.8159C53.6433 74.1458 53.13 73.449 53.9446 72.4312C54.7592 71.4132 58.4936 68.3822 59.6545 64.2974C59.8179 63.7226 59.8999 63.3953 59.9934 62.8052C60.4257 60.0768 58.9678 58.5767 58.9075 55.8149C58.8738 54.2763 58.8666 53.3987 59.1116 51.8794C59.9652 46.5847 62.3175 43.8003 66.2366 40.1392C68.4888 38.0352 70.7292 36.4599 73.0696 35.3511V45.4146ZM111.952 45.4146C111.969 45.4043 120.218 40.4702 120.433 50.5767C120.661 61.3132 111.952 56.3579 111.952 56.3579V70.1919H107.201C108.983 67.0703 110.346 63.7136 110.346 60.0229C108.978 46.3446 100.782 35.234 87.1379 33.5571C81.7032 32.8892 77.2274 33.3812 73.0696 35.3511V31.3755H111.952V45.4146Z" fill="#9F1E3A"/>
</g>
<path fill-rule="evenodd" clip-rule="evenodd" d="M135.511 81.6198L141.509 87.8334L138.819 92.8094L139.787 95.2841L145.14 97.1133L144.951 105.747L139.572 107.496L138.442 110.078L140.809 115.215L134.595 121.213L129.619 118.524L127.145 119.492L125.315 124.844L116.681 124.656L114.933 119.276L112.351 118.147L107.213 120.513L101.215 114.3L103.905 109.324L102.937 106.849L97.5842 105.02L97.7727 96.3858L103.152 94.6376L104.282 92.0554L101.915 86.9179L108.129 80.9198L113.105 83.6097L115.579 82.6415L117.409 77.2888L126.043 77.4773L127.791 82.857L130.373 83.9867L135.511 81.6198ZM117.785 109.244C122.063 111.116 127.049 109.165 128.921 104.886C130.793 100.608 128.842 95.6225 124.564 93.7507C120.285 91.8788 115.3 93.8296 113.428 98.1078C111.556 102.386 113.507 107.372 117.785 109.244Z" fill="#6C90B8"/>
<path fill-rule="evenodd" clip-rule="evenodd" d="M135.508 81.6183L141.506 87.8319L138.816 92.8079L139.784 95.2825L145.137 97.1117L144.948 105.746L139.569 107.494L138.439 110.076L140.806 115.214L134.592 121.212L129.616 118.522L127.142 119.49L125.313 124.843L116.678 124.654L114.93 119.275L113.639 118.71L117.781 109.243C122.059 111.115 127.045 109.164 128.917 104.886C130.789 100.608 128.838 95.6222 124.56 93.7503L129.079 83.4203L130.37 83.9852L135.508 81.6183ZM124.56 93.7503C124.56 93.7503 124.56 93.7503 124.56 93.7503C124.56 93.7503 123.041 97.2179 121.169 101.496C119.297 105.774 117.781 109.243 117.781 109.243C117.781 109.243 117.781 109.243 117.781 109.243L124.56 93.7503Z" fill="#6C90B8"/>
<path d="M125.132 92.46C130.36 94.7475 132.828 100.649 130.644 105.64C128.46 110.631 122.452 112.823 117.223 110.535C117.228 110.524 117.494 109.918 117.942 108.892C122.22 110.764 127.137 108.971 128.924 104.887C130.655 100.931 128.813 96.2763 124.807 94.2875L124.413 94.1035C124.866 93.0682 125.132 92.46 125.132 92.46Z" fill="#97BEDB"/>
<path d="M124.41 94.103C120.132 92.2311 115.214 94.0242 113.428 98.108C111.697 102.064 113.538 106.719 117.545 108.708L117.94 108.891L117.221 110.534C111.992 108.246 109.523 102.344 111.707 97.353C113.891 92.3619 119.901 90.1708 125.129 92.4586L124.41 94.103Z" fill="#97BEDB"/>
<defs>
<linearGradient id="paint0_linear_158_5826" x1="85.8011" y1="11.9958" x2="85.8011" y2="117.194" gradientUnits="userSpaceOnUse">
<stop stop-color="#BBD67A"/>
<stop offset="0.234416" stop-color="#95CE70"/>
<stop offset="0.513974" stop-color="#467276"/>
<stop offset="0.698144" stop-color="#234779"/>
<stop offset="1" stop-color="#1D427E"/>
</linearGradient>
<linearGradient id="paint1_linear_158_5826" x1="85.8011" y1="11.9958" x2="85.8011" y2="117.194" gradientUnits="userSpaceOnUse">
<stop stop-color="white"/>
</linearGradient>
</defs>
</svg>
