<svg width="135" height="117" viewBox="0 0 135 117" fill="none" xmlns="http://www.w3.org/2000/svg">
<path fill-rule="evenodd" clip-rule="evenodd" d="M56.7834 13.5716L64.8505 21.317L61.6146 27.8883L62.9892 31.0429L70.0055 33.1465L70.1863 44.3285L63.3111 46.8554L61.9762 50.2523L65.2917 56.7839L57.5463 64.8511L50.975 61.6151L47.8204 62.9898L45.7168 70.0061L34.5348 70.1869L32.0079 63.3116L28.611 61.9767L22.0794 65.2922L14.0122 57.5469L17.2482 50.9755L15.8735 47.821L8.85722 45.7173L8.67641 34.5353L15.5517 32.0085L16.8866 28.6115L13.5711 22.0799L21.3164 14.0128L27.8878 17.2487L31.0423 15.8741L33.146 8.85776L44.328 8.67695L46.8548 15.5522L50.2518 16.8871L56.7834 13.5716ZM35.2046 50.1887C40.8328 52.4004 47.1883 49.6309 49.4001 44.0027C51.6119 38.3745 48.8423 32.0189 43.2141 29.8072C37.5859 27.5954 31.2304 30.365 29.0186 35.9932C26.8068 41.6214 29.5764 47.9769 35.2046 50.1887Z" fill="#587AA1"/>
<path fill-rule="evenodd" clip-rule="evenodd" d="M56.7839 13.572L64.8511 21.3173L61.6151 27.8886L62.9898 31.0432L70.0061 33.1469L70.1869 44.3289L63.3116 46.8557L61.9767 50.2526L65.2922 56.7842L57.5469 64.8514L50.9755 61.6154L47.821 62.9901L45.7173 70.0064L34.5353 70.1872L32.0085 63.312L30.31 62.6445L35.5553 49.2969C35.3301 49.8707 35.2048 50.1899 35.2048 50.1899C40.833 52.4017 47.1885 49.6321 49.4003 44.0039C51.612 38.3757 48.8425 32.0202 43.2143 29.8084C43.2143 29.8084 43.0887 30.1276 42.8631 30.7012L48.5539 16.22L50.2523 16.8875L56.7839 13.572ZM42.8631 30.7012C42.2356 32.2962 40.8344 35.8589 39.2077 39.9984C37.5809 44.138 36.1817 47.7015 35.5553 49.2969L42.8631 30.7012Z" fill="#587AA1"/>
<path d="M43.8886 28.1102C50.7665 30.8131 54.2503 38.3274 51.6701 44.8936C49.0897 51.4598 41.4221 54.5917 34.5441 51.8888C34.5541 51.8635 36.268 47.5002 38.5039 41.8097C36.7444 46.2881 35.4117 49.6838 35.3944 49.7278C41.0224 51.9393 47.2963 49.3777 49.4075 44.0055C51.5187 38.6333 48.6677 32.4848 43.0398 30.2728C43.0398 30.2728 42.2295 32.331 41.0374 35.3629C42.713 31.1005 43.8886 28.1102 43.8886 28.1102Z" fill="#81A6C7"/>
<path d="M43.0362 30.2696C37.4091 28.0607 31.1371 30.6232 29.0264 35.9943C26.9158 41.3653 29.7658 47.5105 35.3912 49.7237L34.5408 51.8878C27.6618 49.1845 24.1771 41.6699 26.7574 35.1037C29.3378 28.5375 37.0064 25.4059 43.8852 28.1091C43.8852 28.1091 43.5763 28.8954 43.0362 30.2696Z" fill="#81A6C7"/>
<mask id="mask0_158_5088" style="mask-type:alpha" maskUnits="userSpaceOnUse" x="37" y="19" width="76" height="76">
<rect x="38.1074" y="20.1304" width="74.2498" height="74.2498" rx="10.5" fill="url(#paint0_linear_158_5088)" stroke="black"/>
</mask>
<g mask="url(#mask0_158_5088)">
<rect x="37.6074" y="19.6304" width="75.2498" height="75.2498" rx="11" fill="url(#paint1_linear_158_5088)"/>
<path d="M33.5176 92.3905C33.5176 92.3905 49.0583 92.5218 56.4197 90.7897C65.417 88.6727 80.3163 76.2458 85.8653 71.9773C96.4984 63.798 90.7729 93.2092 76.868 98.1519C68.2515 101.215 80.9577 28.6284 112.039 22.9013C119.098 21.6006 100.588 10.6323 100.588 10.6323C100.588 10.6323 95.1669 11.3611 94.8625 16.3585C103.042 26.6125 95.6061 69.5239 103.042 77.7033C109.157 84.43 123.49 82.5753 123.49 82.5753" stroke="url(#paint2_linear_158_5088)" stroke-opacity="0.29" stroke-width="2.5"/>
<path d="M45.6064 84.0444C44.8048 86.5533 45.6064 93.2438 45.6064 93.2438H36.7891V79.8628H48.8127C48.8127 79.8628 46.408 81.5354 45.6064 84.0444Z" fill="url(#paint3_linear_158_5088)"/>
<path d="M68.0505 28.8473V18.8115H36.7891V78.5206C36.7891 78.5206 37.0093 80.1445 40.7969 81.535C43.7258 82.6103 60.5091 81.7932 61.4529 81.7924C62.9767 81.7911 65.1083 81.5729 66.2346 80.9752C67.7761 80.1573 68.0505 78.5214 68.0505 77.3535V55.6093C68.0505 55.6093 78.2771 51.6679 77.6857 49.8938C76.8678 47.44 68.0505 31.3562 68.0505 28.8473Z" fill="url(#paint4_linear_158_5088)"/>
<path opacity="0.8" d="M40.7969 81.5349C43.7258 82.6102 60.5091 81.793 61.4529 81.7922C62.3967 81.7914 53.9657 79.3394 49.0581 76.0677C46.0145 74.0387 40.8787 70.3422 36.7891 65.4346V78.5205C36.7891 78.5205 37.0093 80.1444 40.7969 81.5349Z" fill="#B6B6B6"/>
<path opacity="0.8" d="M40.7969 81.5348C43.7258 82.6101 60.5091 81.793 61.4529 81.7922C62.3967 81.7914 53.1646 80.1583 50.6939 79.3394C46.5129 77.9535 40.0608 75.2497 36.7891 72.7959V78.5204C36.7891 78.5204 37.0093 80.1443 40.7969 81.5348Z" fill="#A4A4A4"/>
</g>
<path fill-rule="evenodd" clip-rule="evenodd" d="M120.113 72.3449L125.429 77.8524L123.045 82.263L123.903 84.4564L128.647 86.0777L128.48 93.7308L123.712 95.2803L122.711 97.5691L124.809 102.123L119.301 107.439L114.891 105.055L112.697 105.913L111.076 110.658L103.423 110.491L101.873 105.722L99.5844 104.721L95.0307 106.819L89.7142 101.311L92.0984 96.9007L91.2402 94.7073L86.4958 93.086L86.6629 85.4329L91.4312 83.8834L92.4326 81.5946L90.3347 77.0409L95.8422 71.7244L100.253 74.1086L102.446 73.2504L104.068 68.506L111.721 68.6731L113.27 73.4414L115.559 74.4428L120.113 72.3449ZM104.401 96.8297C108.194 98.4888 112.613 96.7597 114.272 92.9676C115.931 89.1755 114.202 84.7564 110.41 83.0972C106.618 81.4381 102.199 83.1671 100.539 86.9593C98.8803 90.7514 100.609 95.1705 104.401 96.8297Z" fill="#6C90B8"/>
<path fill-rule="evenodd" clip-rule="evenodd" d="M120.111 72.343L125.427 77.8505L123.043 82.261L123.901 84.4545L128.646 86.0758L128.479 93.7288L123.71 95.2784L122.709 97.5672L124.807 102.121L119.299 107.437L114.889 105.053L112.695 105.911L111.074 110.656L103.421 110.489L101.871 105.72L100.727 105.22L104.398 96.8288C108.19 98.4876 112.609 96.7585 114.268 92.9665C115.927 89.1746 114.198 84.7556 110.407 83.0963L114.413 73.9402L115.557 74.4409L120.111 72.343ZM110.407 83.0963C110.406 83.0963 110.406 83.0962 110.406 83.0961C110.406 83.0961 109.06 86.1697 107.401 89.9618C105.742 93.7539 104.398 96.8286 104.398 96.8286C104.398 96.8286 104.398 96.8287 104.398 96.8288L110.407 83.0963Z" fill="#6C90B8"/>
<path d="M110.913 81.9535C115.547 83.981 117.735 89.2109 115.8 93.6349C113.864 98.0591 108.538 100.002 103.903 97.9745L104.541 96.5179C108.333 98.1771 112.691 96.5876 114.275 92.9679C115.859 89.3482 114.068 85.0692 110.276 83.41L107.407 89.9632C109.336 85.5563 110.901 81.9811 110.913 81.9535Z" fill="#97BEDB"/>
<path d="M110.273 83.4095C106.481 81.7508 102.124 83.3397 100.54 86.959C98.9562 90.5785 100.747 94.8571 104.538 96.5165L103.901 97.973C99.2664 95.9451 97.0781 90.7152 99.0135 86.2912C100.949 81.8671 106.276 79.9243 110.911 81.952L110.273 83.4095Z" fill="#97BEDB"/>
<defs>
<linearGradient id="paint0_linear_158_5088" x1="76.0503" y1="10.6323" x2="76.0503" y2="103.877" gradientUnits="userSpaceOnUse">
<stop stop-color="#BBD67A"/>
<stop offset="0.234416" stop-color="#95CE70"/>
<stop offset="0.513974" stop-color="#467276"/>
<stop offset="0.698144" stop-color="#234779"/>
<stop offset="1" stop-color="#1D427E"/>
</linearGradient>
<linearGradient id="paint1_linear_158_5088" x1="76.0503" y1="10.6323" x2="76.0503" y2="103.877" gradientUnits="userSpaceOnUse">
<stop stop-color="#BBD67A"/>
<stop offset="0.234416" stop-color="#95CE70"/>
<stop offset="0.513974" stop-color="#467276"/>
<stop offset="0.698144" stop-color="#234779"/>
<stop offset="1" stop-color="#1D427E"/>
</linearGradient>
<linearGradient id="paint2_linear_158_5088" x1="78.5039" y1="10.6323" x2="78.5039" y2="98.2462" gradientUnits="userSpaceOnUse">
<stop stop-color="#192514" stop-opacity="0"/>
<stop offset="1" stop-color="#0C1B36"/>
</linearGradient>
<linearGradient id="paint3_linear_158_5088" x1="44.9684" y1="81.7934" x2="42.8009" y2="93.2438" gradientUnits="userSpaceOnUse">
<stop stop-color="#5C5C5C"/>
<stop offset="0.1875" stop-color="#707070"/>
<stop offset="0.561538" stop-color="#818181"/>
<stop offset="1" stop-color="#7F7F7D"/>
</linearGradient>
<linearGradient id="paint4_linear_158_5088" x1="57.2497" y1="18.8115" x2="57.2497" y2="82.0904" gradientUnits="userSpaceOnUse">
<stop stop-color="#E3E3E3"/>
<stop offset="1" stop-color="#C0C0C0"/>
</linearGradient>
</defs>
</svg>
