<svg width="135" height="136" viewBox="0 0 135 136" fill="none" xmlns="http://www.w3.org/2000/svg">
<circle cx="67.5" cy="68.1206" r="67.5" fill="#FFDD40"/>
<path d="M109.998 81.1206C118.058 87.3606 134.2 80.0394 132.706 85.6206C124.998 114.416 98.7234 135.621 67.4966 135.621C36.2698 135.621 9.99563 114.416 2.28728 85.6206C0.793237 80.0394 16.6396 86.419 22.9983 81.1206C38 68.6206 29.9981 49.6206 29.9981 43.6206C29.9981 38.6206 31.0118 38.1936 30.9983 30.6206C30.9752 17.6289 20.9208 18.4935 27.9967 13.3788C39.1019 5.35154 52.7468 0.620605 67.4966 0.620605C82.2465 0.620605 95.8914 5.35154 106.997 13.3788C112.197 17.1376 101.21 23.8691 101.5 30.6206C101.823 38.1537 104 39.1206 104 43.6206C104 48.1206 95.4981 69.8941 109.998 81.1206Z" fill="#FFC839"/>
<mask id="mask0_15_4218" style="mask-type:alpha" maskUnits="userSpaceOnUse" x="0" y="0" width="135" height="136">
<circle cx="67.5" cy="68.1206" r="67.5" fill="#D9D9D9"/>
</mask>
<g mask="url(#mask0_15_4218)">
<path d="M11.5 112.562C11.5 101.479 20.1965 92.3462 31.2663 91.8036C33.7356 91.6826 36.1635 91.1219 38.4359 90.1481L40.7835 89.142C43.8954 87.8083 47.2458 87.1206 50.6314 87.1206H84.1341C87.6711 87.1206 91.1678 87.8711 94.3932 89.3226L96.1868 90.1297C98.3765 91.115 100.73 91.685 103.128 91.8106C113.426 92.3498 121.5 100.857 121.5 111.169V116.436C121.5 130.207 110.336 141.371 96.5652 141.371H36.3942C22.6455 141.371 11.5 130.225 11.5 116.476V112.562Z" fill="#F55EE6"/>
<path d="M95.9438 112.715C94.9451 119.215 95.944 135.714 95.944 135.714C95.944 135.714 109.135 131.808 108.445 124.214C107.82 117.339 96.9922 105.892 95.9438 112.715Z" fill="#D61CC3"/>
<path d="M35.0003 91.1206C38.4104 91.1206 42.5002 88.6206 42.5002 88.6206L57.0002 94.1206C57.0002 94.1206 41.3216 97.6206 37 107.121C33.9921 113.733 35.0003 133.121 35.0003 133.121L11.4997 119.121C11.4997 119.121 9.49986 105.121 17.0002 98.1206C22.282 93.1912 32.0004 91.1206 35.0003 91.1206Z" fill="#D61CC3"/>
<path d="M50.5439 69H81.5439V90.5L66.0439 99L50.5439 88.5V69Z" fill="#FFAA7B"/>
<path d="M50.5439 69H66.0439C66.0439 69 68.0439 81.5 64.0439 89.5C62.5985 92.3909 59.5439 94.5 59.5439 94.5L50.5439 88.5V69Z" fill="#FC9460"/>
<path d="M51.0446 81.5002C52.3787 85.5002 53.5441 88 55.5441 90.5C57.5441 93 63.0441 97 63.0441 97C63.0441 97 60.0439 99 52.5441 106C49.5302 108.813 46.4202 101.316 44.5454 98.0002C38.5439 87.3845 41.5446 87.1004 43.5442 85.5002C46.4961 83.1378 50.5443 80.0002 51.0446 81.5002Z" fill="#D61CC3"/>
<path d="M51.0441 81.5002C52.3782 85.5002 56.0423 91.4998 56.0423 91.4998C56.0423 91.4998 53.0439 91.4998 49.543 94.5C46.2775 97.2984 46.3268 101.5 46.0437 101C38.1147 87 41.5441 87.1004 43.5437 85.5002C46.4956 83.1378 50.5438 80.0002 51.0441 81.5002Z" fill="#C107AF"/>
<path d="M81.5449 81.4307C80.2267 85.436 79.0713 87.9405 77.0813 90.4484C75.0913 92.9563 69.6072 96.9782 69.6072 96.9782C69.6072 96.9782 72.6153 98.9662 80.1429 105.936C83.1679 108.737 86.2481 101.228 88.1097 97.9048C94.0689 87.2653 91.0671 86.9932 89.0611 85.4009C86.0999 83.0503 82.0392 79.9288 81.5449 81.4307Z" fill="#D61CC3"/>
</g>
<path d="M41.0053 39.8818C45.0053 38.4485 47.5049 43.3814 47.5049 43.3814V53.8814C47.5049 53.8814 44.5059 55.8818 42.5059 54.8818C40.4101 53.8339 40.8563 51.8823 40.5059 50.3818C40.2724 49.3823 38.3913 46.3012 38.5049 44.3814C38.6297 42.273 39.017 40.5943 41.0053 39.8818Z" fill="#FC9460"/>
<path d="M92.9996 39.8818C88.9996 38.4485 86.4999 43.3814 86.4999 43.3814V53.8814C86.4999 53.8814 89.499 55.8818 91.499 54.8818C93.5948 53.8339 93.1486 51.8823 93.499 50.3818C93.7325 49.3823 95.6136 46.3012 95.4999 44.3814C95.3751 42.273 94.9879 40.5943 92.9996 39.8818Z" fill="#FFAA7B"/>
<path d="M89.4999 48.1222C89.4999 61.1009 79.4264 82.1222 66.9999 82.1222C54.5735 82.1222 44.4999 61.1009 44.4999 48.1222C44.4999 40.8339 42.5 24.4999 46.4999 19C49.7725 14.5 53.9999 5.5 66.4999 5.5C82.4999 5.5 84.9999 14 87.9999 19C91.6001 25 89.4999 40.8339 89.4999 48.1222Z" fill="#FFC7AB"/>
<path d="M67.0001 82.1223C79.4265 82.1223 57.5 72 57.5 45.5C57.5 19 67.0001 5.5 67.0001 5.5C57.0001 5.5 53.8931 9.81082 50.0001 13.5C44.0002 19.1859 42.4998 35.9982 44.0002 50.6205C45.5005 65.2428 54.5737 82.1223 67.0001 82.1223Z" fill="#FFAA7B"/>
</svg>
