<svg width="135" height="141" viewBox="0 0 135 141" fill="none" xmlns="http://www.w3.org/2000/svg">
<circle cx="67.5" cy="73.1206" r="67.5" fill="#FFDD40"/>
<path d="M109.998 86.1206C118.058 92.3606 134.2 85.0394 132.706 90.6206C124.998 119.416 98.7234 140.621 67.4966 140.621C36.2698 140.621 9.99563 119.416 2.28728 90.6206C0.793237 85.0394 16.6396 91.419 22.9983 86.1206C38 73.6206 29.9981 54.6206 29.9981 48.6206C29.9981 43.6206 31.0118 43.1936 30.9983 35.6206C30.9752 22.6289 20.9208 23.4935 27.9967 18.3788C39.1019 10.3515 52.7468 5.62061 67.4966 5.62061C82.2465 5.62061 95.8914 10.3515 106.997 18.3788C112.197 22.1376 101.21 28.8691 101.5 35.6206C101.823 43.1537 104 44.1206 104 48.6206C104 53.1206 95.4981 74.8941 109.998 86.1206Z" fill="#FFC839"/>
<mask id="mask0_15_4140" style="mask-type:alpha" maskUnits="userSpaceOnUse" x="0" y="5" width="135" height="136">
<circle cx="67.5" cy="73.1206" r="67.5" fill="#D9D9D9"/>
</mask>
<g mask="url(#mask0_15_4140)">
<path d="M4.99202 119.428C4.40562 108.535 10.9432 98.3909 21.1549 94.5535L33.8319 89.7897L41.7573 87.9709C43.5916 87.5499 45.4675 87.3374 47.3494 87.3374H90.4708C92.8176 87.3374 95.1527 87.6678 97.4073 88.319L102.5 89.7897L114.439 94.6561C123.85 98.4922 130.002 107.644 130.002 117.807V118.25C130.002 132.057 118.809 143.25 105.002 143.25H29.9648C16.6799 143.25 5.70614 132.694 4.99202 119.428Z" fill="#7E6DD1"/>
<path d="M101.256 113.716C100.133 120.416 101.256 137.421 101.256 137.421C101.256 137.421 116.094 133.395 115.317 125.568C114.614 118.482 102.435 106.684 101.256 113.716Z" fill="#548BED"/>
<path d="M12.4613 98.6745C14.42 97 26.501 91.5 41.7057 88.2437L59.5003 98.6745C59.5003 98.6745 41.8612 96.7088 37.0003 106.5C33.617 113.315 35.5003 135.5 35.5003 135.5L6.27432 120.318C6.27432 120.318 4.02358 105.888 12.4613 98.6745Z" fill="#7255CE"/>
<path d="M12.4613 98.6745C14.42 97 26.501 91.5 41.7057 88.2437L59.5003 98.6745C59.5003 98.6745 41.8612 96.7088 37.0003 106.5C33.617 113.315 35.5003 135.5 35.5003 135.5L6.27432 120.318C6.27432 120.318 4.02358 105.888 12.4613 98.6745Z" fill="#7255CE"/>
<path d="M9 103C13.6368 96.7067 13.5003 94.4998 21.5003 103.5L21.5612 103.574C24.9002 107.653 27.0003 110.219 27.0003 122V131.5L6.27402 120.318C6.27402 120.318 2.00061 112.5 9 103Z" fill="#7E6DD1"/>
<path d="M122.039 98.4308C120.08 96.7563 105.705 90.2563 90.5 87L78.5 91L67.5 97V143.5H115L128.226 120.074C128.226 120.074 130.476 105.644 122.039 98.4308Z" fill="#9589E8"/>
<path d="M125.5 102.756C120.863 96.463 121 94.2562 113 103.256L112.939 103.33C109.6 107.41 107.5 109.975 107.5 121.756V131.256L128.226 120.075C128.226 120.075 132.499 112.256 125.5 102.756Z" fill="#B5B0F7"/>
<rect x="76" y="115" width="20" height="28" rx="4" fill="#B5B0F7"/>
<path d="M52 67H83V88.5L67.5 97L52 86.5V67Z" fill="#FFAA7B"/>
<path d="M52 67H67.5C67.5 67 69.5 79.5 65.5 87.5C64.0545 90.3909 61 92.5 61 92.5L52 86.5V67Z" fill="#FC9460"/>
<path d="M52.5007 79.5002C53.8348 83.5002 55.0001 86 57.0001 88.5C59.0001 91 64.5001 95 64.5001 95C64.5001 95 61.4999 97 54.0001 104C50.9863 106.813 47.8762 99.3163 46.0015 96.0002C40 85.3845 43.0007 85.1004 45.0003 83.5002C47.9522 81.1378 52.0004 78.0002 52.5007 79.5002Z" fill="#9589E8"/>
<path d="M52.5002 79.5002C53.8343 83.5002 57.4983 89.4998 57.4983 89.4998C57.4983 89.4998 54.5 89.4998 50.9991 92.5C47.7335 95.2984 47.7829 99.4998 47.4998 99C39.5708 85 43.0002 85.1004 44.9998 83.5002C47.9517 81.1378 51.9999 78.0002 52.5002 79.5002Z" fill="#7E6DD1"/>
<path d="M83.001 79.4307C81.6828 83.436 80.5274 85.9405 78.5373 88.4484C76.5473 90.9563 71.0633 94.9782 71.0633 94.9782C71.0633 94.9782 74.0714 96.9662 81.599 103.936C84.624 106.737 87.7042 99.2283 89.5657 95.9048C95.5249 85.2653 92.5231 84.9932 90.5172 83.4009C87.556 81.0503 83.4953 77.9288 83.001 79.4307Z" fill="#B5B0F7"/>
</g>
<path d="M40.5053 41.2612C44.5053 39.8279 47.0049 44.7608 47.0049 44.7608V55.2608C47.0049 55.2608 44.0059 57.2612 42.0059 56.2612C39.9101 55.2133 40.3563 53.2616 40.0059 51.7612C39.7724 50.7616 37.8913 47.6806 38.0049 45.7608C38.1297 43.6524 38.517 41.9736 40.5053 41.2612Z" fill="#FC9460"/>
<path d="M92.5045 41.2612C88.5045 39.8279 86.0048 44.7608 86.0048 44.7608V55.2608C86.0048 55.2608 89.0039 57.2612 91.0039 56.2612C93.0997 55.2133 92.6534 53.2616 93.0039 51.7612C93.2374 50.7616 95.1185 47.6806 95.0048 45.7608C94.88 43.6524 94.4928 41.9736 92.5045 41.2612Z" fill="#FFAA7B"/>
<path d="M90 48.6406C90 61.6193 79.9264 82.6406 67.5 82.6406C55.0736 82.6406 45 61.6193 45 48.6406C45 41.3523 45.0138 24.7256 50 20.0003C53.8929 16.3112 61.5518 19.4998 67 19.4998C72.4482 19.4998 81.1071 16.3107 85 19.9999C89.9862 24.7251 90 41.3523 90 48.6406Z" fill="#FFC7AB"/>
<path d="M67.5 82.782C84 81.0001 59 78.0001 59 51.5001C59 25.0001 67 20.5001 67 20.5001C61.5 19.4998 54.8929 16.8109 51 20.5001C46.0138 25.2253 45 41.4936 45 48.782C45 62.5001 55.5 82.5001 67.5 82.782Z" fill="#FFAA7B"/>
<path d="M94.0412 32.5011C94.0412 39.8746 95.4718 45.1207 90.5412 41.0011C89.3854 40.0355 87.6542 38.6195 87.0412 35.0011C86.4353 31.4252 88.5412 25.8802 85.5412 22.5011C81.1021 17.5011 73.5411 21.5011 67.5401 21.5011C61.539 21.5011 56.3221 17.7472 51.04 22.5011C46.5411 26.55 48.5391 31.3568 48.04 35.0011C47.5394 38.6561 46.6242 40.1185 45.54 41.0011C41.4548 44.3266 42.041 42.1313 42.041 35.5011C42.041 29.3473 34.9639 20.0011 39.541 16.5011C43.9261 13.1481 47.541 13.0011 50.541 9.50112C51.8268 7.50112 55.041 0.0011222 70.0412 0.0011222C72.2464 0.0011222 81.8765 -0.0749408 84.541 1C87.1278 2.04359 80.541 3.5 85.041 5.50112C90.5734 8.5924 94.6267 11.9427 97.5412 19.0011C99.5513 23.8693 94.0412 27.6509 94.0412 32.5011Z" fill="#56415E"/>
<path d="M65 21.5C61.0401 21.5 56.3221 17.7471 51.04 22.501C46.5411 26.5499 48.5391 31.3566 48.04 35.001C47.5394 38.656 46.6242 40.1184 45.54 41.001C41.4548 44.3265 42.041 42.1311 42.041 35.501C42.041 29.3472 34.9639 20.001 39.541 16.501C43.9261 13.148 47.541 13.001 50.541 9.50098C51.8268 7.50098 55.041 0.000976562 70.0412 0.000976562C72.2464 0.000976562 63.2037 4.09877 62.5 12.5C61.7963 20.9012 68.9599 21.5 65 21.5Z" fill="#45304C"/>
</svg>
