<svg width="135" height="141" viewBox="0 0 135 141" fill="none" xmlns="http://www.w3.org/2000/svg">
<circle cx="67.5" cy="73.1206" r="67.5" fill="#FFDD40"/>
<path d="M109.998 86.1206C118.058 92.3606 134.2 85.0394 132.706 90.6206C124.998 119.416 98.7234 140.621 67.4966 140.621C36.2698 140.621 9.99563 119.416 2.28728 90.6206C0.793237 85.0394 16.6396 91.419 22.9983 86.1206C38 73.6206 29.9981 54.6206 29.9981 48.6206C29.9981 43.6206 31.0118 43.1936 30.9983 35.6206C30.9752 22.6289 20.9208 23.4935 27.9967 18.3788C39.1019 10.3515 52.7468 5.62061 67.4966 5.62061C82.2465 5.62061 95.8914 10.3515 106.997 18.3788C112.197 22.1376 101.21 28.8691 101.5 35.6206C101.823 43.1537 104 44.1206 104 48.6206C104 53.1206 95.4981 74.8941 109.998 86.1206Z" fill="#FFC839"/>
<mask id="mask0_2_4231" style="mask-type:alpha" maskUnits="userSpaceOnUse" x="0" y="5" width="135" height="136">
<circle cx="67.5" cy="73.1206" r="67.5" fill="#D9D9D9"/>
</mask>
<g mask="url(#mask0_2_4231)">
<path d="M11.5 117.562C11.5 106.479 20.1965 97.3462 31.2663 96.8036C33.7356 96.6826 36.1635 96.1219 38.4359 95.1481L40.7835 94.142C43.8954 92.8083 47.2458 92.1206 50.6314 92.1206H84.1341C87.6711 92.1206 91.1678 92.8711 94.3932 94.3226L96.1868 95.1297C98.3765 96.115 100.73 96.685 103.128 96.8106C113.426 97.3498 121.5 105.857 121.5 116.169V121.436C121.5 135.207 110.336 146.371 96.5652 146.371H36.3942C22.6455 146.371 11.5 135.225 11.5 121.476V117.562Z" fill="#72AAFC"/>
<path d="M95.9438 117.715C94.9451 124.215 95.944 140.714 95.944 140.714C95.944 140.714 109.135 136.808 108.445 129.214C107.82 122.339 96.9922 110.892 95.9438 117.715Z" fill="#548BED"/>
<path d="M35.0003 96.1206C38.4104 96.1206 42.5002 93.6206 42.5002 93.6206L57.0002 99.1206C57.0002 99.1206 41.3216 102.621 37 112.121C33.9921 118.733 35.0003 138.121 35.0003 138.121L11.4997 124.121C11.4997 124.121 9.49986 110.121 17.0002 103.121C22.282 98.1912 32.0004 96.1206 35.0003 96.1206Z" fill="#548BED"/>
<path d="M51.5016 81.1206C58 81.1206 57.5016 85.7274 67.5023 85.6206C76.5016 85.5245 76 81.1206 83.5016 81.1206C86.5005 81.1206 92 87.6206 92 93.1206C92 97.1206 76.5372 100.1 67.5023 100.121C58.2732 100.142 41.9996 96.6206 42 93.1206C42.0007 87.0927 49 81.1206 51.5016 81.1206Z" fill="#548BED"/>
<path d="M51.5016 81.1206C58 81.1206 59 85.6206 67.5023 85.6206C69 85.6206 57.8462 84.1206 56 92.1206C54.7308 97.6206 57.5 99.1206 57.5 99.1206C57.5 99.1206 41.9996 96.6206 42 93.1206C42.0007 87.0927 49 81.1206 51.5016 81.1206Z" fill="#3E7FDD"/>
</g>
<path d="M41.0053 44.8818C45.0053 43.4485 47.5049 48.3814 47.5049 48.3814V58.8814C47.5049 58.8814 44.5059 60.8818 42.5059 59.8818C40.4101 58.8339 40.8563 56.8823 40.5059 55.3818C40.2724 54.3823 38.3913 51.3012 38.5049 49.3814C38.6297 47.273 39.017 45.5943 41.0053 44.8818Z" fill="#FC9460"/>
<path d="M92.9996 44.8818C88.9996 43.4485 86.4999 48.3814 86.4999 48.3814V58.8814C86.4999 58.8814 89.499 60.8818 91.499 59.8818C93.5948 58.8339 93.1486 56.8823 93.499 55.3818C93.7325 54.3823 95.6136 51.3012 95.4999 49.3814C95.3751 47.273 94.9879 45.5943 92.9996 44.8818Z" fill="#FFAA7B"/>
<path d="M89.0001 71.6206C88.0153 66.4083 87.5001 60.1206 87.5001 60.1206L78.0001 66.1206C78.0001 66.1206 76 86.6206 78.0001 98.6206C79.3928 106.976 84.9997 122.621 87.5001 118.121C89.4917 114.536 88.456 111.185 89.0001 107.121C89.9433 100.076 92.7506 96.2239 92.9997 89.1206C93.2423 82.2048 90.2849 78.4204 89.0001 71.6206Z" fill="#45304C"/>
<path d="M89.5 53.1224C89.5 66.1011 79.4264 87.1224 67 87.1224C54.5736 87.1224 44.5 66.1011 44.5 53.1224C44.5 45.8341 47.0138 32.8458 52 28.1206C55.8929 24.4314 61.5518 28.1224 67 28.1224C72.4482 28.1224 78.6071 24.4332 82.5 28.1224C87.4862 32.8476 89.5 45.8341 89.5 53.1224Z" fill="#FFC7AB"/>
<path d="M67 87.1222C79.4264 87.1222 57 82.1204 57 55.6204C57 29.1204 69 27.6206 69 27.6206C63.5518 27.6206 55.8929 24.4313 52 28.1204C47.0138 32.8456 44.5 45.8339 44.5 53.1222C44.5 66.1009 54.5736 87.1222 67 87.1222Z" fill="#FFAA7B"/>
<path d="M78.5 10.1206C78.5 16.4719 73.3516 23.6206 67.0004 23.6206C60.6491 23.6206 55 16.4719 55 10.1206C55 3.76933 60.6491 0.120605 67.0004 0.120605C73.3516 0.120605 78.5 3.76933 78.5 10.1206Z" fill="#56415E"/>
<path d="M65.5 5.12043C65.5 11.4717 73.3516 23.6204 67.0004 23.6204C60.6491 23.6204 55 16.4717 55 10.1204C55 3.76912 60.6491 0.120392 67.0004 0.120392C68.5 0.120392 65.5 -1.23085 65.5 5.12043Z" fill="#45304C"/>
<path d="M66.5 8.62061C58.9899 8.62049 55 12.1206 55 12.1206L55.5 15.6206H77.5L78.5 12.1206C78.5 12.1206 74 8.62072 66.5 8.62061Z" fill="#D2DAF9"/>
<path d="M92.5 36.6206C92.5 43.994 92.9307 51.7402 88 47.6206C86.8443 46.655 86.4324 43.3295 85.8193 39.7111C85.2135 36.1352 84.4111 32.2732 82.5 30.1206C78.5285 25.6472 69.5 29.1206 66.5 29.1206C63.5 29.1206 55.4037 25.2669 52 30.1206C50.5832 32.141 49.9991 36.0668 49.5 39.7111C48.9994 43.3661 48.5842 46.738 47.5 47.6206C43.4149 50.9461 40.5 43.2507 40.5 36.6206C40.5 22.2612 52.1406 10.6206 66.5 10.6206C80.8594 10.6206 92.5 22.2612 92.5 36.6206Z" fill="#56415E"/>
<path d="M66.5 10.6206C52.1406 10.6206 40.5 22.2612 40.5 36.6206C40.5 43.2507 43.4149 50.9461 47.5 47.6206C48.5842 46.738 48.9994 43.3661 49.5 39.7111C49.9991 36.0668 50.5832 32.141 52 30.1206C55.4037 25.2669 63.5 29.1206 66 29.1206C66 29.1206 62.5 27.1206 62.5 20.6206C62.5 14.1206 66.5 10.6206 66.5 10.6206Z" fill="#45304C"/>
</svg>
