<svg width="125" height="125" viewBox="0 0 125 125" fill="none" xmlns="http://www.w3.org/2000/svg">
<mask id="mask0_1_3193" style="mask-type:alpha" maskUnits="userSpaceOnUse" x="0" y="0" width="63" height="125">
<rect width="62.5" height="125" fill="#D9D9D9"/>
</mask>
<g mask="url(#mask0_1_3193)">
<path fill-rule="evenodd" clip-rule="evenodd" d="M62.5 0C97.0175 0 125 27.9822 125 62.5C125 97.0175 97.0175 125 62.5 125C27.9822 125 0 97.0175 0 62.5C0 27.9822 27.9822 0 62.5 0ZM80 74.1037C75.4838 78.5306 69.3156 81.25 62.5 81.25C55.6844 81.25 49.5161 78.5306 45.0002 74.1037C42.5354 71.6875 38.5783 71.7262 36.1619 74.1913C33.7455 76.6562 33.7848 80.6137 36.2497 83.03C43.0074 89.6544 52.2819 93.75 62.5 93.75C72.7181 93.75 81.9925 89.6544 88.75 83.03C91.215 80.6137 91.2544 76.6562 88.8381 74.1913C86.4219 71.7262 82.4644 71.6875 80 74.1037ZM40.625 37.5C35.4473 37.5 31.25 41.6973 31.25 46.875C31.25 52.0525 35.4473 56.25 40.625 56.25C45.8027 56.25 50 52.0525 50 46.875C50 41.6973 45.8027 37.5 40.625 37.5ZM84.375 37.5C79.1975 37.5 75 41.6973 75 46.875C75 52.0525 79.1975 56.25 84.375 56.25C89.5525 56.25 93.75 52.0525 93.75 46.875C93.75 41.6973 89.5525 37.5 84.375 37.5Z" fill="#F9F7F4"/>
</g>
<mask id="path-3-inside-1_1_3193" fill="white">
<path fill-rule="evenodd" clip-rule="evenodd" d="M62.5 0C97.0175 0 125 27.9822 125 62.5C125 97.0175 97.0175 125 62.5 125C27.9822 125 0 97.0175 0 62.5C0 27.9822 27.9822 0 62.5 0ZM80 74.1037C75.4838 78.5306 69.3156 81.25 62.5 81.25C55.6844 81.25 49.5161 78.5306 45.0002 74.1037C42.5354 71.6875 38.5783 71.7262 36.1619 74.1913C33.7455 76.6562 33.7848 80.6137 36.2497 83.03C43.0074 89.6544 52.2819 93.75 62.5 93.75C72.7181 93.75 81.9925 89.6544 88.75 83.03C91.215 80.6137 91.2544 76.6562 88.8381 74.1913C86.4219 71.7262 82.4644 71.6875 80 74.1037ZM40.625 37.5C35.4473 37.5 31.25 41.6973 31.25 46.875C31.25 52.0525 35.4473 56.25 40.625 56.25C45.8027 56.25 50 52.0525 50 46.875C50 41.6973 45.8027 37.5 40.625 37.5ZM84.375 37.5C79.1975 37.5 75 41.6973 75 46.875C75 52.0525 79.1975 56.25 84.375 56.25C89.5525 56.25 93.75 52.0525 93.75 46.875C93.75 41.6973 89.5525 37.5 84.375 37.5Z"/>
</mask>
<path fill-rule="evenodd" clip-rule="evenodd" d="M62.5 0C97.0175 0 125 27.9822 125 62.5C125 97.0175 97.0175 125 62.5 125C27.9822 125 0 97.0175 0 62.5C0 27.9822 27.9822 0 62.5 0ZM80 74.1037C75.4838 78.5306 69.3156 81.25 62.5 81.25C55.6844 81.25 49.5161 78.5306 45.0002 74.1037C42.5354 71.6875 38.5783 71.7262 36.1619 74.1913C33.7455 76.6562 33.7848 80.6137 36.2497 83.03C43.0074 89.6544 52.2819 93.75 62.5 93.75C72.7181 93.75 81.9925 89.6544 88.75 83.03C91.215 80.6137 91.2544 76.6562 88.8381 74.1913C86.4219 71.7262 82.4644 71.6875 80 74.1037ZM40.625 37.5C35.4473 37.5 31.25 41.6973 31.25 46.875C31.25 52.0525 35.4473 56.25 40.625 56.25C45.8027 56.25 50 52.0525 50 46.875C50 41.6973 45.8027 37.5 40.625 37.5ZM84.375 37.5C79.1975 37.5 75 41.6973 75 46.875C75 52.0525 79.1975 56.25 84.375 56.25C89.5525 56.25 93.75 52.0525 93.75 46.875C93.75 41.6973 89.5525 37.5 84.375 37.5Z" stroke="#F9F7F4" stroke-width="9" stroke-dasharray="9 9" mask="url(#path-3-inside-1_1_3193)"/>
</svg>
