<svg width="135" height="135" viewBox="0 0 135 135" fill="none" xmlns="http://www.w3.org/2000/svg">
<mask id="path-1-inside-1_1_3239" fill="white">
<path fill-rule="evenodd" clip-rule="evenodd" d="M67.217 0C104.34 0 134.434 30.094 134.434 67.217C134.434 104.34 104.34 134.434 67.217 134.434C30.094 134.434 0 104.34 0 67.217C0 30.094 30.094 0 67.217 0ZM86.0377 79.6965C81.1806 84.4575 74.547 87.3821 67.217 87.3821C59.887 87.3821 53.2531 84.4575 48.3965 79.6965C45.7456 77.0979 41.4898 77.1395 38.8911 79.7906C36.2923 82.4416 36.3346 86.6978 38.9856 89.2964C46.2532 96.4207 56.2277 100.825 67.217 100.825C78.2063 100.825 88.1806 96.4207 95.4481 89.2964C98.0992 86.6978 98.1415 82.4416 95.5429 79.7906C92.9443 77.1395 88.6881 77.0979 86.0377 79.6965ZM43.691 40.3302C38.1226 40.3302 33.6085 44.8443 33.6085 50.4127C33.6085 55.981 38.1226 60.4953 43.691 60.4953C49.2595 60.4953 53.7736 55.981 53.7736 50.4127C53.7736 44.8443 49.2595 40.3302 43.691 40.3302ZM90.7429 40.3302C85.1747 40.3302 80.6604 44.8443 80.6604 50.4127C80.6604 55.981 85.1747 60.4953 90.7429 60.4953C96.3112 60.4953 100.825 55.981 100.825 50.4127C100.825 44.8443 96.3112 40.3302 90.7429 40.3302Z"/>
</mask>
<path fill-rule="evenodd" clip-rule="evenodd" d="M67.217 0C104.34 0 134.434 30.094 134.434 67.217C134.434 104.34 104.34 134.434 67.217 134.434C30.094 134.434 0 104.34 0 67.217C0 30.094 30.094 0 67.217 0ZM86.0377 79.6965C81.1806 84.4575 74.547 87.3821 67.217 87.3821C59.887 87.3821 53.2531 84.4575 48.3965 79.6965C45.7456 77.0979 41.4898 77.1395 38.8911 79.7906C36.2923 82.4416 36.3346 86.6978 38.9856 89.2964C46.2532 96.4207 56.2277 100.825 67.217 100.825C78.2063 100.825 88.1806 96.4207 95.4481 89.2964C98.0992 86.6978 98.1415 82.4416 95.5429 79.7906C92.9443 77.1395 88.6881 77.0979 86.0377 79.6965ZM43.691 40.3302C38.1226 40.3302 33.6085 44.8443 33.6085 50.4127C33.6085 55.981 38.1226 60.4953 43.691 60.4953C49.2595 60.4953 53.7736 55.981 53.7736 50.4127C53.7736 44.8443 49.2595 40.3302 43.691 40.3302ZM90.7429 40.3302C85.1747 40.3302 80.6604 44.8443 80.6604 50.4127C80.6604 55.981 85.1747 60.4953 90.7429 60.4953C96.3112 60.4953 100.825 55.981 100.825 50.4127C100.825 44.8443 96.3112 40.3302 90.7429 40.3302Z" stroke="#9F1E3A" stroke-width="9" stroke-dasharray="9 9" mask="url(#path-1-inside-1_1_3239)"/>
<mask id="mask0_1_3239" style="mask-type:alpha" maskUnits="userSpaceOnUse" x="0" y="0" width="70" height="134">
<rect width="70" height="134" fill="#D9D9D9"/>
</mask>
<g mask="url(#mask0_1_3239)">
<path fill-rule="evenodd" clip-rule="evenodd" d="M67 0C104.003 0 134 30.0932 134 67.215C134 104.336 104.003 134.43 67 134.43C29.9969 134.43 0 104.336 0 67.215C0 30.0932 29.9969 0 67 0ZM85.76 79.6941C80.9186 84.455 74.3064 87.3795 67 87.3795C59.6937 87.3795 53.0812 84.455 48.2403 79.6941C45.5979 77.0956 41.3559 77.1373 38.7655 79.7882C36.1752 82.4392 36.2173 86.6952 38.8597 89.2938C46.1039 96.4179 56.0462 100.822 67 100.822C77.9538 100.822 87.896 96.4179 95.14 89.2938C97.7825 86.6952 97.8247 82.4392 95.2345 79.7882C92.6443 77.1373 88.4018 77.0956 85.76 79.6941ZM43.55 40.329C37.9995 40.329 33.5 44.843 33.5 50.4112C33.5 55.9793 37.9995 60.4935 43.55 60.4935C49.1005 60.4935 53.6 55.9793 53.6 50.4112C53.6 44.843 49.1005 40.329 43.55 40.329ZM90.45 40.329C84.8997 40.329 80.4 44.843 80.4 50.4112C80.4 55.9793 84.8997 60.4935 90.45 60.4935C96.0003 60.4935 100.5 55.9793 100.5 50.4112C100.5 44.843 96.0003 40.329 90.45 40.329Z" fill="#9F1E3A"/>
</g>
</svg>
