<svg width="115" height="125" viewBox="0 0 115 125" fill="none" xmlns="http://www.w3.org/2000/svg">
<path d="M45.7506 5.74893C45.7506 5.33537 46.086 5 46.4995 5L48.7266 0C44.1768 0 40.4883 3.68838 40.4883 8.23817L45.7506 5.74893ZM45.7506 6.88266V5.74893L40.4883 8.23817V9.3719L45.7506 6.88266ZM15.4995 24.5C15.5981 24.3215 15.7285 24.2389 15.8523 24.2058C15.9761 24.1727 16.1303 24.179 16.3049 24.2843L21.2532 20.2253C17.3097 17.8444 12.2475 19.1997 10.0209 23.2324L15.4995 24.5ZM5.06961 43.3165L15.4995 24.5L10.0209 23.2324L1.10058 39.3884L5.06961 43.3165ZM5.40169 44.5571C5.2185 44.4464 5.06796 44.2552 4.99951 44C4.93121 43.7446 4.96611 43.5039 5.06961 43.3165L1.10058 39.3884C-1.07132 43.3223 0.271509 48.338 4.11831 50.6604L5.40169 44.5571ZM14.2586 63.1918C14.2586 62.5641 14.2717 61.9396 14.2977 61.3189L8.86504 61.0061C8.83478 61.7311 8.8195 62.4597 8.8195 63.1918H14.2586ZM14.2699 64.1976C14.2624 63.8633 14.2586 63.5281 14.2586 63.1918H8.8195C8.8195 63.584 8.82384 63.9751 8.83253 64.3652L14.2699 64.1976ZM4.37685 81.3384C4.27334 81.151 4.23829 80.9101 4.30675 80.6549C4.3752 80.3997 4.52573 80.2085 4.70892 80.0979L4.11637 74.332C0.269562 76.6544 -1.07325 81.6702 1.09863 85.604L4.37685 81.3384ZM15.6941 101.552L4.37685 81.3384L1.09863 85.604L10.023 101.767L15.6941 101.552ZM16.4995 101.767C16.3249 101.873 16.1707 101.879 16.0469 101.846C15.9231 101.813 15.7927 101.73 15.6941 101.552L10.023 101.767C12.2496 105.8 17.3118 107.155 21.2553 104.775L16.4995 101.767ZM35.9995 103C35.3449 102.626 34.7012 102.234 34.0686 101.824L31.6231 105.625C32.3707 106.109 33.132 106.573 33.9067 107.016L35.9995 103ZM46.7484 119.749C46.3349 119.749 45.9995 119.414 45.9995 119L40.4883 116.762C40.4883 121.312 44.1768 125 48.7266 125L46.7484 119.749ZM68.2506 119.749H46.7484L48.7266 125H66.2731L68.2506 119.749ZM68.9995 119C68.9995 119.414 68.6641 119.749 68.2506 119.749L66.2731 125C70.8228 125 74.5113 121.312 74.5113 116.762L68.9995 119ZM81.1555 101.694C80.4506 102.151 79.7317 102.587 78.9995 103L81.0412 107.148C81.9079 106.659 82.7582 106.143 83.5913 105.603L81.1555 101.694ZM98.9995 100.5C98.901 100.679 98.7705 100.761 98.6468 100.794C98.523 100.827 98.3688 100.821 98.1943 100.716L93.7465 104.771C97.6901 107.152 102.752 105.797 104.979 101.764L98.9995 100.5ZM109.832 81.7405L98.9995 100.5L104.979 101.764L113.899 85.6078L109.832 81.7405ZM109.5 80.5C109.683 80.6107 109.833 80.8018 109.902 81.0571C109.97 81.3124 109.935 81.5531 109.832 81.7405L113.899 85.6078C116.071 81.6739 114.728 76.6582 110.881 74.3358L109.5 80.5ZM101.05 63.0142C101.05 63.4403 101.044 63.8648 101.032 64.2878L106.339 64.6777C106.353 64.1842 106.36 63.6887 106.36 63.1918L101.05 63.0142ZM101 60.8875C101.033 61.5918 101.05 62.3008 101.05 63.0142L106.36 63.1918C106.36 62.3599 106.34 61.5323 106.301 60.7099L101 60.8875ZM109.832 43.7595C109.935 43.9469 109.97 44.1876 109.902 44.4429C109.833 44.6983 109.683 44.8893 109.5 45L110.884 50.664C114.73 48.3416 116.073 43.3259 113.901 39.392L109.832 43.7595ZM99.3048 24.2155L109.832 43.7595L113.901 39.392L104.977 23.2288L99.3048 24.2155ZM98.4995 24C98.674 23.8946 98.8283 23.8883 98.952 23.9215C99.0757 23.9546 99.2062 24.037 99.3048 24.2155L104.977 23.2288C102.75 19.1959 97.6883 17.8407 93.7446 20.2215L98.4995 24ZM68.881 5.74893V6.7492L74.5113 9.23845V8.23817L68.881 5.74893ZM68.132 5C68.5456 5 68.881 5.33537 68.881 5.74893L74.5113 8.23817C74.5113 3.68838 70.8228 0 66.2731 0L68.132 5ZM46.4995 5H68.132L66.2731 0H48.7266L46.4995 5ZM81.4683 19.4798C77.2482 17.0404 74.5113 13.1771 74.5113 9.23845L68.881 6.7492C68.881 14.2319 73.3315 20.7236 78.9995 24L81.4683 19.4798ZM93.7446 20.2215C90.354 22.2685 85.669 21.9081 81.4683 19.4798L78.9995 24C84.7411 27.3191 92.0587 27.8884 98.4995 24L93.7446 20.2215ZM106.301 60.7099C106.095 56.3692 107.825 52.5106 110.884 50.664L109.5 45C103.462 48.6452 100.702 54.6143 101 60.8875L106.301 60.7099ZM83.5913 105.603C87.0093 103.385 90.9418 103.078 93.7465 104.771L98.1943 100.716C92.2883 97.15 86.2736 98.3733 81.1555 101.694L83.5913 105.603ZM110.881 74.3358C107.929 72.5533 106.22 68.8645 106.339 64.6777L101.032 64.2878C100.859 70.3925 103.638 76.9612 109.5 80.5L110.881 74.3358ZM33.9067 107.016C37.9319 109.318 40.4883 112.987 40.4883 116.762L45.9995 119C45.9995 111.732 41.5599 106.18 35.9995 103L33.9067 107.016ZM21.2553 104.775C24.1204 103.045 28.1341 103.366 31.6231 105.625L34.0686 101.824C28.8916 98.4717 22.4727 98.1612 16.4995 101.767L21.2553 104.775ZM74.5113 116.762C74.5113 113.032 77.0456 109.404 81.0412 107.148L78.9995 103C73.4468 106.135 68.9995 111.765 68.9995 119L74.5113 116.762ZM8.83253 64.3652C8.92929 68.6831 7.16826 72.4896 4.11637 74.332L4.70892 80.0979C10.667 76.5009 14.4087 70.4016 14.2699 64.1976L8.83253 64.3652ZM4.11831 50.6604C7.27311 52.5651 9.05182 56.5382 8.86504 61.0061L14.2977 61.3189C14.5639 54.9493 11.533 48.2586 5.40169 44.5571L4.11831 50.6604ZM33.642 19.5199C29.4426 21.9566 24.6922 22.3014 21.2532 20.2253L16.3049 24.2843C22.7578 28.1802 30.2047 26.8625 35.9995 23.5L33.642 19.5199ZM40.4883 9.3719C40.4883 13.2858 37.8094 17.1016 33.642 19.5199L35.9995 23.5C41.6408 20.2266 45.7506 14.3089 45.7506 6.88266L40.4883 9.3719Z" fill="#901A36"/>
<path d="M76.0633 58.8734C78.7407 68.8656 72.811 79.1363 62.8187 81.8137C52.8265 84.4912 42.5557 78.5614 39.8782 68.5692C37.2008 58.577 43.1307 48.3062 53.1229 45.6287C63.1152 42.9513 73.3858 48.8812 76.0633 58.8734Z" stroke="#901A36" stroke-width="5"/>
</svg>
