<svg width="135" height="135" viewBox="0 0 135 135" fill="none" xmlns="http://www.w3.org/2000/svg">
<path d="M67.2168 2.25C103.097 2.25 132.183 31.3366 132.184 67.2168C132.184 103.097 103.097 132.184 67.2168 132.184C31.3366 132.183 2.25 103.097 2.25 67.2168C2.2501 31.3367 31.3367 2.2501 67.2168 2.25ZM97.1494 78.2158C93.7891 74.7877 88.3535 74.6287 84.8008 77.7754L84.4629 78.0898C80.0095 82.4551 73.9346 85.1318 67.2168 85.1318C60.7089 85.1318 54.8045 82.6197 50.3936 78.4941L49.9717 78.0898L49.6338 77.7744C46.1955 74.7297 40.9938 74.7806 37.6162 77.8936L37.2842 78.2158C33.9243 81.6435 33.8722 87.0814 37.0889 90.5713L37.4102 90.9033C45.0811 98.423 55.6148 103.075 67.2168 103.075C78.4563 103.075 88.6932 98.7091 96.2959 91.5996L97.0234 90.9033C100.451 87.5433 100.611 82.1071 97.4648 78.5537L97.1494 78.2158ZM43.6914 38.0801C36.8803 38.0801 31.3584 43.602 31.3584 50.4131C31.3586 57.2238 36.8804 62.7451 43.6914 62.7451C50.5022 62.7449 56.0232 57.2237 56.0234 50.4131C56.0234 43.6021 50.5023 38.0803 43.6914 38.0801ZM90.7432 38.0801C83.9323 38.0801 78.4102 43.602 78.4102 50.4131C78.4103 57.2238 83.9324 62.7451 90.7432 62.7451C97.5538 62.745 103.075 57.2237 103.075 50.4131C103.075 43.602 97.5539 38.0802 90.7432 38.0801Z" fill="#9F1E3A" stroke="#9F1E3A" stroke-width="4.5"/>
</svg>
