<svg width="130" height="88" viewBox="0 0 130 88" fill="none" xmlns="http://www.w3.org/2000/svg">
<path d="M30.8486 2.25H41.8516C45.3025 2.25021 48.3613 4.50968 49.3838 7.83496L49.3848 7.83691L70.2471 75.4541C70.9912 77.8677 70.551 80.4923 69.0605 82.5244L69.0596 82.5254C67.5734 84.5543 65.2169 85.75 62.7119 85.75C59.2322 85.7499 56.1633 83.4619 55.1602 80.1055V80.1045L50.5723 64.7666L50.0918 63.1621H21.6328L21.1768 64.8125L16.916 80.2461C16.0153 83.5043 13.0683 85.7499 9.71973 85.75C7.35672 85.75 5.13043 84.6234 3.7207 82.709L3.71875 82.707C2.30569 80.7928 1.88258 78.3184 2.5791 76.0361V76.0342L23.3047 7.86914V7.86816C24.3214 4.52326 27.39 2.25 30.8486 2.25ZM106.833 35.6152C115.05 35.6153 120.066 38.0301 123.076 41.5068C126.139 45.0448 127.463 50.0675 127.463 55.9219V74.0986C127.463 77.3064 127.544 80.4589 127.746 83.1113V83.1123C127.775 83.489 127.645 83.8625 127.389 84.1396L127.384 84.1445C127.133 84.4168 126.78 84.5723 126.405 84.5723H118.868C118.271 84.5721 117.74 84.1698 117.576 83.5791L117.549 83.459L117.132 81.1758L116.794 79.3301H113.537L112.862 80.1562C109.956 83.7102 105.337 85.748 99.7168 85.748C90.4802 85.748 85.1534 79.1201 85.1533 71.9619C85.1533 65.9746 87.7623 61.6607 92.4551 58.7441C97.2815 55.7447 104.432 54.1674 113.423 54.2207L115.687 54.2344V51.2197C115.687 49.4505 115.208 47.0942 113.265 45.1982C111.327 43.3085 108.298 42.2334 103.964 42.2334C100.745 42.2334 97.4633 42.8408 94.5654 43.7646L93.9902 43.9541C93.2 44.2221 92.3411 44.153 91.6055 43.7646L91.6025 43.7637L91.4658 43.6865C90.7936 43.2877 90.2974 42.6447 90.084 41.8896L90.0762 41.8662L90.0254 41.6904C89.6332 40.2629 90.3292 38.7906 91.625 38.1787L91.8936 38.0684C95.5694 36.7522 100.669 35.6152 106.833 35.6152ZM33.2451 14.3398C31.8877 19.7847 30.6564 26.1499 29.2275 31.249L29.2266 31.2539L24.0371 49.9268L23.2441 52.7793H48.5586L47.7168 49.8984L42.2588 31.2246L42.2559 31.2148C40.7228 26.0563 39.1715 19.6009 37.8594 14.3398L37.4336 12.6338H33.6709L33.2451 14.3398ZM116.21 59.9023L113.988 59.875C109.621 59.8213 105.434 60.3003 102.257 61.8027C100.638 62.5681 99.2034 63.6365 98.1758 65.1074C97.1351 66.5971 96.6064 68.3667 96.6064 70.3584C96.6065 72.9695 97.4923 75.1698 99.1875 76.6943C100.845 78.1853 103.029 78.8076 105.238 78.8076C110.285 78.8076 114.431 75.4791 115.784 71.2568L115.805 71.1914L115.822 71.125C116.094 70.0549 116.21 68.8991 116.21 67.791V59.9023Z" stroke="#9F1E3A" stroke-width="4.5"/>
</svg>
