<svg width="438" height="1260" viewBox="0 0 438 1260" fill="none" xmlns="http://www.w3.org/2000/svg">
<path d="M211.001 21.5006C211.001 21.5006 279.374 -24.3346 355.501 21.5005C451 79.0003 359.001 260.5 185.501 241.5C110.976 233.339 1.50053 246 1.50053 352C1.50053 458 174.772 486.689 248.501 420.5C292.501 381 349 381 382.5 420.5C425.474 471.171 455.5 576.5 348 576.5C308.501 576.5 291.5 560 291.5 560C248.501 532 230.813 534.506 185.501 546.5C134.5 560 64.5006 638 105.5 710C168.839 821.23 246.499 628 395 718.5C395 718.5 436.773 751.672 436 807C434.824 891.205 334.501 975 248.501 958.5C168.808 943.21 30.4999 939.5 51.5 1076.5C61.1902 1139.72 164.5 1240 334.5 1138.5C381.947 1110.17 471.5 1185 414.001 1259" stroke="#F9F7F4" stroke-width="2.0355" stroke-dasharray="8.14 10.18"/>
</svg>
