<svg width="148" height="110" viewBox="0 0 148 110" fill="none" xmlns="http://www.w3.org/2000/svg">
<path fill-rule="evenodd" clip-rule="evenodd" d="M139 0C143.971 0 148 4.02944 148 9V101C148 105.971 143.971 110 139 110H9C4.02944 110 0 105.971 0 101V9C0 4.02944 4.02944 8.05346e-08 9 0H139ZM14.5947 6C9.60899 6 5.57321 10.0534 5.59473 15.0391L5.93945 95.0391C5.96095 99.9942 9.98427 104 14.9395 104H133.174C138.16 104 142.195 99.9466 142.174 94.9609L141.829 14.9609C141.808 10.0058 137.784 6.00017 132.829 6H14.5947Z" fill="#9F1E3A"/>
<path d="M67.578 34.4237C66.9525 32.388 65.0791 31 62.9597 31H57.7122C55.5873 31 53.7091 32.3971 53.0877 34.4432L43.2036 66.9765C42.7725 68.39 43.0343 69.924 43.9104 71.1116C44.7841 72.2989 46.1658 73 47.6354 73C49.7184 73 51.5448 71.6029 52.1021 69.5856L54.1342 62.2192H66.0908L68.2792 69.5396C68.8928 71.5939 70.7724 73 72.9089 73C74.4467 73 75.8916 72.2653 76.8019 71.0215C77.7142 69.7768 77.9824 68.1712 77.5277 66.6956L67.578 34.4237ZM55.4976 55.1164L57.9726 46.204C58.6531 43.7737 59.2754 40.5975 59.8967 38.1037H60.0149C60.6364 40.5975 61.3842 43.7123 62.1242 46.204L64.7272 55.1164H55.4976Z" fill="#9F1E3A"/>
<path d="M104.863 66.3653V57.69C104.863 51.8237 102.223 46.9244 93.951 46.9244C90.8801 46.9244 88.326 47.4907 86.4642 48.1579C85.227 48.6016 84.5462 49.9311 84.9057 51.2015L84.9303 51.2851C85.1191 51.9536 85.5746 52.5146 86.188 52.8375C86.7996 53.1606 87.515 53.2177 88.171 52.9949C89.5267 52.5348 91.0814 52.2306 92.5829 52.2306C96.3892 52.2306 97.1005 54.1193 97.1005 55.4457V55.8043C88.3218 55.7521 82.5387 58.8641 82.5387 65.3454C82.5387 69.327 85.5317 72.999 90.5571 72.999C93.4977 72.999 96.0316 71.9259 97.6574 69.9361H97.8071L98.0065 71.0277C98.1573 71.8441 98.8642 72.438 99.6911 72.438H103.286C103.763 72.438 104.219 72.2385 104.542 71.887C104.867 71.5354 105.032 71.0632 104.995 70.5852C104.902 69.3566 104.863 67.8819 104.863 66.3653ZM97.3504 63.3547C97.3504 63.8133 97.3018 64.2736 97.1982 64.6812C96.6917 66.2632 95.1191 67.5387 93.1907 67.5387C91.4673 67.5387 90.1468 66.5696 90.1468 64.58C90.1468 61.5693 93.2941 60.6004 97.3504 60.6503V63.3547Z" fill="#9F1E3A"/>
<path d="M117 94C117 96.7614 114.761 99 112 99C109.239 99 107 96.7614 107 94C107 91.2386 109.239 89 112 89C114.761 89 117 91.2386 117 94Z" fill="#9F1E3A"/>
<path d="M105.817 91C105.385 91.9094 105.143 92.9262 105.143 94C105.143 95.0738 105.385 96.0906 105.817 97H14C12.3431 97 11 95.6569 11 94C11 92.3431 12.3431 91 14 91H105.817Z" fill="#9F1E3A"/>
<path d="M134 91C135.657 91 137 92.3431 137 94C137 95.6569 135.657 97 134 97H118.468C118.9 96.0906 119.143 95.0738 119.143 94C119.143 92.9262 118.9 91.9094 118.468 91H134Z" fill="#9F1E3A"/>
</svg>
