<svg width="148" height="110" viewBox="0 0 148 110" fill="none" xmlns="http://www.w3.org/2000/svg">
<path d="M139 0C143.971 0 148 4.02944 148 9V101C148 105.971 143.971 110 139 110H9C4.02944 110 0 105.971 0 101V9C0 4.02944 4.02944 8.0532e-08 9 0H139ZM112 89C109.239 89 107 91.2386 107 94C107 96.7614 109.239 99 112 99C114.761 99 117 96.7614 117 94C117 91.2386 114.761 89 112 89ZM14 91C12.3431 91 11 92.3431 11 94C11 95.6569 12.3431 97 14 97H105.817C105.385 96.0906 105.143 95.0738 105.143 94C105.143 92.9262 105.385 91.9094 105.817 91H14ZM118.468 91C118.9 91.9094 119.143 92.9262 119.143 94C119.143 95.0738 118.9 96.0906 118.468 97H134C135.657 97 137 95.6569 137 94C137 92.3431 135.657 91 134 91H118.468ZM57.7119 31C55.5871 31.0001 53.7093 32.3974 53.0879 34.4434L43.2031 66.9766C42.7722 68.3899 43.0342 69.9237 43.9102 71.1113C44.7838 72.2986 46.1662 73 47.6357 73C49.7185 72.9999 51.5452 71.603 52.1025 69.5859L54.1338 62.2188H66.0908L68.2793 69.54C68.8929 71.5941 70.7729 73 72.9092 73C74.4468 72.9999 75.8915 72.2651 76.8018 71.0215C77.714 69.7767 77.982 68.1709 77.5273 66.6953L67.5781 34.4238C66.9526 32.3882 65.0792 31.0001 62.96 31H57.7119ZM93.9512 46.9248C90.8802 46.9248 88.3257 47.4911 86.4639 48.1582C85.227 48.6021 84.5461 49.9311 84.9053 51.2012L84.9307 51.2852C85.1195 51.9535 85.5743 52.515 86.1875 52.8379C86.7991 53.161 87.5149 53.2178 88.1709 52.9951C89.5266 52.535 91.0815 52.2305 92.583 52.2305C96.3888 52.2305 97.1004 54.1189 97.1006 55.4453V55.8047C88.3219 55.7525 82.5391 58.8645 82.5391 65.3457C82.5392 69.327 85.5317 72.9988 90.5566 72.999C93.4971 72.999 96.0315 71.9261 97.6572 69.9365H97.8066L98.0068 71.0273C98.1577 71.8438 98.8645 72.4375 99.6914 72.4375H103.285C103.763 72.4375 104.219 72.2383 104.542 71.8867C104.867 71.5352 105.032 71.063 104.995 70.585C104.902 69.3565 104.863 67.8818 104.863 66.3652V57.6904C104.863 51.8242 102.223 46.9249 93.9512 46.9248ZM97.3506 63.3545C97.3506 63.8131 97.3018 64.2741 97.1982 64.6816C96.6917 66.2635 95.1187 67.5391 93.1904 67.5391C91.4672 67.539 90.1465 66.5696 90.1465 64.5801C90.1465 61.5694 93.2944 60.6005 97.3506 60.6504V63.3545ZM60.0146 38.1035C60.6362 40.5973 61.3841 43.7123 62.124 46.2041L64.7275 55.1162H55.498L57.9727 46.2041C58.6531 43.7738 59.2752 40.5973 59.8965 38.1035H60.0146Z" fill="#9F1E3A"/>
</svg>
